<?xml version="1.0" encoding="utf-8"?>
<!-- Generator: Adobe Illustrator 15.0.0, SVG Export Plug-In . SVG Version: 6.00 Build 0)  -->
<!DOCTYPE svg PUBLIC "-//W3C//DTD SVG 1.1//EN" "http://www.w3.org/Graphics/SVG/1.1/DTD/svg11.dtd">
<svg version="1.1" id="Capa_1" xmlns="http://www.w3.org/2000/svg" xmlns:xlink="http://www.w3.org/1999/xlink" x="0px" y="0px"
	 width="80px" height="80px" viewBox="0 0 80 80" enable-background="new 0 0 80 80" xml:space="preserve">
<path fill="none" stroke="#FFFFFF" stroke-width="2.2" stroke-linecap="round" stroke-linejoin="round" stroke-miterlimit="10" d="
	M70.393,75.133H11.496V4.01h46.611v11.021c0,0.667,0.539,1.245,1.205,1.245h11.08V75.133L70.393,75.133z"/>
<path fill="none" stroke="#FFFFFF" stroke-width="2.2" stroke-linecap="round" stroke-miterlimit="10" d="M41,10.699
	c2.777,0.017,5.371,1.099,7.333,3.051c4.063,4.084,4.063,10.697,0,14.779l-7.397,7.377l-7.377-7.377
	c-4.064-4.082-4.064-10.695,0-14.779c1.959-1.949,4.55-3.031,7.301-3.051"/>
<path fill="none" stroke="#FFFFFF" stroke-width="2.2" stroke-linecap="round" stroke-miterlimit="10" d="M40.859,25.058
	c-2.113-0.041-3.835-1.792-3.835-3.919c0-2.152,1.763-3.92,3.91-3.92c2.164,0,3.93,1.768,3.93,3.92c0,2.12-1.713,3.867-3.832,3.918"
	/>
<g>
	<path fill="none" stroke="#FFFFFF" stroke-width="2.2" stroke-linecap="round" stroke-miterlimit="10" d="M64.553,51.002H16.001"/>
</g>
<g>
	<path fill="none" stroke="#FFFFFF" stroke-width="2.2" stroke-linecap="round" stroke-miterlimit="10" d="M64.553,57.822H16.001"/>
</g>
<g>
	<path fill="none" stroke="#FFFFFF" stroke-width="2.2" stroke-linecap="round" stroke-miterlimit="10" d="M58.107,65.203H22.446"/>
</g>
<g>
	<path fill="none" stroke="#FFFFFF" stroke-width="2.2" stroke-linecap="round" stroke-miterlimit="10" d="M58.107,44.516H22.446"/>
</g>
<line fill="none" stroke="#FFFFFF" stroke-width="2.2" stroke-linecap="round" stroke-linejoin="round" stroke-miterlimit="10" x1="58.107" y1="4.01" x2="70.393" y2="16.276"/>
</svg>
