<?xml version="1.0" encoding="utf-8"?>
<!-- Generator: Adobe Illustrator 15.0.0, SVG Export Plug-In . SVG Version: 6.00 Build 0)  -->
<!DOCTYPE svg PUBLIC "-//W3C//DTD SVG 1.1//EN" "http://www.w3.org/Graphics/SVG/1.1/DTD/svg11.dtd">
<svg version="1.1" id="Capa_1" xmlns="http://www.w3.org/2000/svg" xmlns:xlink="http://www.w3.org/1999/xlink" x="0px" y="0px"
	 width="1024px" height="768px" viewBox="0 0 1024 768" enable-background="new 0 0 1024 768" xml:space="preserve">
<g>
	<defs>
		<rect id="SVGID_1_" x="0" y="0" width="1022" height="768"/>
	</defs>
	<clipPath id="SVGID_2_">
		<use xlink:href="#SVGID_1_"  overflow="visible"/>
	</clipPath>
	<path clip-path="url(#SVGID_2_)" fill="#11182B" d="M0,0h1022v768H0V0z"/>
</g>
<g>
	<defs>
		<rect id="SVGID_3_" x="0" y="0" width="1022" height="768"/>
	</defs>
	<clipPath id="SVGID_4_">
		<use xlink:href="#SVGID_3_"  overflow="visible"/>
	</clipPath>
	<g clip-path="url(#SVGID_4_)">
		<path fill="none" stroke="#EFEFEF" stroke-width="1.278" stroke-miterlimit="10" d="M998.862,417.423
			c-6.147,2.161-10.906,0.221-16.611-1.278c-0.334-4.657,10.756-4.495,8.944-6.389C996.939,406.854,997.791,411.804,998.862,417.423
			L998.862,417.423z M690.896,611.658c0.783,10.707-3.178,20.655-10.224,20.445C663.517,631.594,676.895,598.497,690.896,611.658z
			 M784.181,868.509c5.358,9.634,27.518,11.407,39.614,6.389c3.857,2.719-3.66,4.76-3.834,7.668
			c6.032-3.762,9.17-10.423,15.334-14.057c-1.102,14.079-16.251,25.577-33.226,20.444c-23.578-7.128-59.867-40.422-44.725-75.395
			c-0.11,23.539,8.065,38.791,20.445,49.838c-13.535-6.19-32.221-72.135,11.501-63.894c21.987,13.849,49.906,33.769,44.726,66.448
			C823.757,875.761,796.478,878.3,784.181,868.509L784.181,868.509z M900.467,403.365c6.776,2.593,18.696,0.045,20.444,7.667
			c-2.155,18.264-35.355,20.192-51.113,12.779c0.177-11.324,8.977-14.027,17.89-16.612c-6.566-2.278-16.229,3.343-17.89,10.224
			c-2.441-20.392,42.06-25.5,53.671-10.224C919.141,405.917,910.491,400.366,900.467,403.365L900.467,403.365z M1046.144,416.144
			c1.644,3.573,2.644-4.025,6.39-2.556c72.926,38.217,136.754,103.882,153.346,200.626c9.876,57.587-1.104,119.07-20.446,159.73
			c-1.702-1.277-3.855-2.105-5.111-3.834c-3.266,2.124,4.986,3.433,3.834,7.667c-39.501,76.463-120.534,152.729-231.295,159.734
			c-31.503,1.994-57.92-1.862-84.34-7.667c-2.534-2.514-0.813-7.299,0-10.225c-4.421,0.266,0.116,9.487-5.111,8.945
			c-2.659-2.389-6.604-1.508-3.833-6.39c-2.463,0.52-1.01,4.954-5.111,3.834c-36.712-15.444-79.109-30.09-102.229-60.061
			c-5.852-7.585-8.632-18.521-8.944-29.392c-3.184,9.594,1.997,21.841,7.668,26.836c-50.056-48.677-99.358-111.72-93.284-218.514
			c3.002-52.806,22.523-104.672,47.279-141.845c26.157-39.278,63.705-66.83,102.23-85.616c3.747-1.46,4.745-0.755,6.389,2.556
			c0.969-2.884-0.132-6.544,5.111-7.667c5.979-0.018,7.73,4.195,8.945,8.945c4.522-4.27-7.689-7.716-3.833-11.501
			c35.111-12.157,78.003-27.447,125.229-24.28c38.653,2.591,72.507,15.325,100.952,25.558
			C1050.194,414.229,1048.015,415.032,1046.144,416.144L1046.144,416.144z M934.969,411.032c4.275-4.275-10.41-20.923-11.5-16.611
			C927.696,393.234,936.147,409.854,934.969,411.032z M864.687,421.257c2.483,10.556,22.922,11.59,33.225,10.223
			c12.693-1.688,30.907-8.459,30.669-20.446c-0.311-15.63-20.424-17.657-35.779-15.334
			C876.337,398.188,861.008,405.621,864.687,421.257L864.687,421.257z M975.861,412.311c-0.619,11.594,27.619,16.407,29.392,0
			C1000.943,402.666,976.496,400.385,975.861,412.311z M918.356,431.479c2.611-2.55,11.057-5.917,8.945-8.945
			C926.47,426.861,915.239,427.442,918.356,431.479z M865.964,431.479c-8.443-15.974-3.052,5.686,6.39,1.277
			C869.275,433.278,869.575,430.424,865.964,431.479z M993.751,425.09c-3.8,1.136-12.343-3.355-10.224,0
			C985.976,425.304,996.229,428.084,993.751,425.09z M1080.646,444.258c2.173,0.285,3.162-1.439,0-1.277
			c-11.353-10.695-49.051-8.958-56.227,3.833C1035.017,437.012,1067.078,436.114,1080.646,444.258z M1023.143,459.593
			c-23.097,38.713,27.001,72.188,61.338,65.171c12.712-2.599,29.055-13.689,30.668-28.113c3.47-31.013-36.298-54.823-66.449-49.837
			C1035.345,449.02,1027.143,452.885,1023.143,459.593z M781.625,459.593c14.689-0.803-2.706-1.517-5.111-1.278
			c-15.847,1.56-47.668,16.108-48.561,25.558C740.404,470.337,759.652,463.603,781.625,459.593z M1118.982,488.982
			c3.896-8.111-8.104-23.885-8.944-23.002C1115.371,471.298,1116.267,481.049,1118.982,488.982z M717.731,555.432
			c7.789,17.763,29.798,34.083,57.504,29.391c26.93-4.562,64.146-34.409,63.895-67.727c-0.247-32.873-31.47-56.021-67.729-49.837
			C738.206,472.92,698.436,511.426,717.731,555.432L717.731,555.432z M827.628,478.76c-1.297-5.551-9.422-10.984-12.778-10.225
			C820.651,470.401,822.737,475.981,827.628,478.76z M706.23,527.318c-1.007,16.553,5.997-16.637,3.834-16.612
			C709.464,514.447,706.468,523.418,706.23,527.318z M851.906,514.54c-1.583,18.019-14.374,42.693-24.278,52.394
			C842.375,556.121,851.885,540.072,851.906,514.54z M1104.926,522.207c3.768-0.974,10.154-5.957,7.667-8.944
			C1110.576,516.781,1108.244,519.988,1104.926,522.207z M1064.033,529.874c-5.945-0.629-14.515-3.806-12.777-2.556
			c9.163,6.589,33.882,7.907,43.447,0C1086.32,529.181,1073.974,530.924,1064.033,529.874L1064.033,529.874z M1141.984,534.986
			h-15.335c4.271,1.731,16.365,2.323,19.168,1.277C1144.314,536.062,1142.19,536.483,1141.984,534.986z M712.619,566.933
			c7.904,21.09,36.806,34.715,65.172,26.835C745.617,595.271,723.988,586.232,712.619,566.933z M1067.867,635.938
			c6.462,18.879,35.894,30.055,60.061,23.002c44.27-12.924,40.235-90.731-14.057-88.173
			C1080.395,572.342,1055.062,598.522,1067.867,635.938L1067.867,635.938z M905.578,587.38c5.285-3.596,19.533-7.688,17.891-10.225
			c-0.072,0.779-0.191,1.513-1.278,1.278c-12.871,2.044-26.478,10.143-28.112,19.168C897.219,595.023,900.75,590.66,905.578,587.38z
			 M963.082,579.711c11.824,4.36,21.673,10.7,30.669,17.892C988.841,587.933,968.598,580.285,963.082,579.711z M790.57,589.935
			c3.344-0.919,4.351-4.171,7.667-5.112C794.402,581.361,791.847,586.93,790.57,589.935z M955.415,684.497
			c55.461-11.857,52.032-110.229-19.168-100.952c-0.798,0.104-1.343,1.285-1.278,1.277
			C861.666,595.155,883.069,699.963,955.415,684.497L955.415,684.497z M681.951,635.938c13.746-0.696,19.788-26.783,10.223-38.336
			C668.712,588.746,658.89,637.104,681.951,635.938z M699.841,614.215c1.276-3.317,2.246-8.562-1.277-10.224
			C700.618,608.411,696.786,610.789,699.841,614.215z M1003.975,621.882c2.246-7.742-6.083-17.243-5.111-15.334
			C1001.31,610.914,1000.916,618.122,1003.975,621.882z M674.283,639.771c6.211,8.304,24.582-2.674,19.169-8.945
			C694.773,641.9,676.276,642.435,674.283,639.771z M1141.984,667.885c12.284-5.613,27.643-14.948,24.279-31.947
			C1164.43,652.845,1152.754,659.91,1141.984,667.885z M722.843,652.551c10.081-8.024,34.475-11.581,43.447,0
			C761.104,638.453,729.117,642.18,722.843,652.551z M1039.755,657.661c-3.578-5.389-15.793-8.888-23.002-6.389
			C1026.812,651.01,1033.246,654.372,1039.755,657.661z M886.41,660.218c-3.794-1.744-5.597-5.479-7.668-8.944
			C878.461,656.295,883.193,662.933,886.41,660.218L886.41,660.218z M742.011,734.331c68.251,12.876,54.265-95.188-5.111-80.503
			C698.875,663.232,707.981,727.912,742.011,734.331z M1076.813,665.328c-0.256-2.707-7.087-9.641-6.389-5.11
			c7.197,8.567,20.875,17.45,35.78,14.057C1093.834,673.864,1086.047,668.873,1076.813,665.328z M782.902,666.606
			c4.198,9.005,10.01,16.4,12.779,26.835C795.813,680.104,788.969,673.744,782.902,666.606z M706.23,699.831
			c-3.823-3.916,0.835-16.967-1.277-19.168C700.865,683.75,701.421,702.401,706.23,699.831L706.23,699.831z M1154.763,681.941
			c-3.621-3.123-12.137-0.268-15.334,1.277C1145.391,683.38,1156.75,682.155,1154.763,681.941z M869.798,711.332
			c3.942-12.669,15.104-18.119,23.002-26.835C883.979,691.442,869.894,699.916,869.798,711.332z M957.971,698.553
			c-16.064,4.813-44.865-1.911-53.67-8.944c-0.869-0.693,0.156-6.722-2.557-1.278C910.874,699.863,940.674,707.528,957.971,698.553z
			 M968.193,694.72c5.087-0.916,14.354-4.338,11.501-8.945C977.249,690.143,970.44,690.149,968.193,694.72z M1129.205,722.833
			c11.451,13.089,41.922,4.205,42.17-15.335c0.161-12.697-9.284-23.344-25.559-20.444
			C1132.837,689.363,1116.656,708.484,1129.205,722.833L1129.205,722.833z M989.918,727.941c3.359-7.712,14.462-7.685,23.001-10.22
			C1005.756,715.909,987.933,720.661,989.918,727.941z M983.528,740.721c-9.681,39.135,59.465,44.493,54.948,2.556
			c-1.626-15.098-17.04-23.172-34.502-19.166C992.109,726.831,984.813,735.529,983.528,740.721z M772.68,735.609
			c7.385,0.963,12.834-6.714,11.501-10.221C781.817,730.266,776.313,732,772.68,735.609z M762.457,740.721
			c-17.451,2.905-34.873-3.959-43.448-14.056C723.642,739.969,749.051,748.41,762.457,740.721z M1143.262,734.331
			c-5.036-0.125-12.252-4.72-14.057-3.834C1132.406,732.457,1138.919,737.759,1143.262,734.331z M1134.316,781.612
			c3.293-0.969,4.44-4.078,3.834-8.945C1130.168,763.518,1122.453,781.226,1134.316,781.612z M995.029,777.778
			c20.529-0.005-3.286-1.362-6.39-6.389C987.894,776.396,993.896,774.654,995.029,777.778z M763.734,789.279
			c-7.486,6.093,13.719-3.979,21.725-2.556C777.518,784.802,769.005,785.273,763.734,789.279z M749.678,819.948
			c-10.21,39.065,38.551,81.943,70.283,75.396c15.638-3.229,25.169-18.887,23.002-39.614c-2.995-28.64-40.045-63.966-63.895-61.338
			C762.455,796.223,752.744,808.219,749.678,819.948L749.678,819.948z M834.018,821.227c-5.219-6.295-11.109-18.689-17.891-19.168
			C823.705,805.997,828.107,819.88,834.018,821.227z M1069.146,814.838c-1.329,3.693,6.565-2.86,12.778-3.834
			c12.223-1.914,25.086,2.849,29.392,5.111C1102.209,806.531,1080.022,806.98,1069.146,814.838L1069.146,814.838z M1025.698,868.509
			c2.388,36.23,47.766,13.95,62.615,2.556c14.637-11.229,25.237-21.225,23.002-42.17
			C1086.443,795.077,1024.126,844.645,1025.698,868.509L1025.698,868.509z M1110.037,854.451c6.686-0.812,9.687-18.08,6.39-20.445
			C1117.041,843.566,1113.121,848.592,1110.037,854.451z M850.63,862.118c0.274-7.518,0.053-14.533-3.834-17.891
			C848.41,849.856,847.477,858.03,850.63,862.118z M911.968,871.063c8.184-8.711,29.886-0.919,35.78,0
			C942.198,865.028,912.616,862.515,911.968,871.063z M906.856,899.177c5.742,22.566,64.983,31.053,63.895-1.278
			c-0.592-17.501-32.438-28.607-49.838-24.279C910.169,876.292,902.425,881.766,906.856,899.177L906.856,899.177z M1051.256,895.344
			c3.68-2.14-6.529-1.017-8.945-1.278c-8.72-3.207-15.507-8.346-20.445-15.334c0.285,0.993,0.034,2.521,1.277,2.556
			C1028.275,890.212,1035.884,896.658,1051.256,895.344L1051.256,895.344z M814.85,901.732c-2.535-3.013-2.535,0.117,0,1.277
			c6.938,0.977,9.903-2.023,16.612-1.277c0.681-3.225,9.92-4.466,6.39-7.668C833.493,899.933,823.409,900.07,814.85,901.732z
			 M968.193,915.789c7.286-1.895,11.863-14.907,6.391-21.725C976.533,903.635,973.234,910.086,968.193,915.789z M905.578,910.677
			c-1.58-1.712-6.482-8.597-2.557-1.277c3.879,7.229,12.031,16.662,25.559,15.334C918.993,923.777,908.703,914.066,905.578,910.677
			L905.578,910.677z M785.457,482.594c7.785,2.438,19.69,0.754,25.559,5.111c-39.35-0.481-82.325,6.194-85.617,46.004
			c5.3-27.72,34.783-47.964,76.672-43.447c16.6,1.787,32.337,9.918,29.393,33.225c-3.402,26.915-40.619,55.866-65.172,56.227
			c-22.266,0.324-42.468-15.461-46.004-37.059c-5.531-33.784,12.711-40.532,28.113-52.393c-9.188,1.46-14.469,6.828-19.168,12.777
			c7.524-26.429,69.697-44.407,90.729-14.057C810.778,484.968,803.032,476.947,785.457,482.594L785.457,482.594z M771.401,569.488
			c-6.62,1.458-14.934-2.039-16.612-1.276C758.906,571.475,767.004,573.109,771.401,569.488z M1058.923,455.759
			c-2.861-1.782-4.691,6.018-6.391-2.557c-3.01,0.348-0.78,5.658,1.278,5.111c-15.585,3.584-26.604,11.73-28.113,29.392
			c-10.232-36.045,36.624-45.313,60.061-29.392c-3.372,2.034-12.279-1.308-19.168,0c14.406,2.942,29.878,5.408,37.059,15.335
			c1.676,2.315,5.987,10.652,6.389,14.057c5.31,44.973-81.312,39.507-81.782,1.277
			C1028.007,468.916,1044.153,466.464,1058.923,455.759z M1071.7,511.984c-8.842,1.147-16.72-5.396-23.002-2.556
			C1055.178,510.644,1064.568,515.674,1071.7,511.984z M1141.984,584.822c0.168,3.15,0.193,6.155-1.278,7.668
			c1.148,3.454,3.086-2.694,3.834-3.834c8.789,6.781,11.633,26.438,6.391,39.614c-2.75-11.039-6.888-19.445,0-28.113
			c-4.699-0.438-3.864,4.654-5.112,7.667c-4.774-5.155-14.392-10.388-11.501-19.168c-6.361,7.304-17.443-6.058-29.391-5.11
			c20.667,8.498,38.353,17.915,40.892,39.613c3.232,27.608-30.843,42.321-57.504,30.669c-36.677-16.03-18.444-85.162,33.225-77.949
			c2.624,0.363,12.665,3.021,11.501,5.11C1134.946,581.135,1138.777,582.665,1141.984,584.822L1141.984,584.822z M987.362,620.604
			c-6.88-11.863-16.099-21.387-35.781-20.446c21.696,3.725,39.641,17.483,37.06,42.17c-5.451,52.16-99.453,44.855-95.84-6.39
			c0.917-13.008,10.371-18.319,20.444-26.835c-5.024-0.314-13.959,6.467-16.611,12.778c2.456-21.765,29.704-36.475,57.505-31.946
			C972.732,592.963,981.189,607.172,987.362,620.604z M949.025,672.996c6.331-2.719-17.72-1.999-21.724-1.277
			C933.879,674.13,941.171,675.025,949.025,672.996z M740.732,666.606c51.904-12.284,54.189,61.604,11.501,62.613
			c-30.978,0.732-43.616-39.924-19.168-57.502c-4.773,1.211-13.419,9.565-14.057,19.168c-6.082-24.878,24.467-43.391,44.726-26.835
			C759.651,664.428,745.862,663.317,740.732,666.606L740.732,666.606z M742.011,722.834c-5.09-1.123-12.781-11.17-12.778-7.668
			c0.006,7.904,23.917,12.494,31.946,6.39C754.867,721.33,748.418,724.243,742.011,722.834z M1152.207,722.834
			c-1.896-0.561,0.504-1.636,0-3.834c-2.543,1.718-6.084,2.437-8.945,3.834c-33.715-9.765,5.927-46.729,20.446-25.559
			C1170.884,707.738,1162.679,719.768,1152.207,722.834L1152.207,722.834z M1149.651,693.441c8.083,3.699,7.098,16.827,6.391,23.002
			C1161.944,709.75,1156.957,690.574,1149.651,693.441z M1024.42,756.055c-5.901,8.684-33.5,9.093-37.059-3.833
			c-7.93-28.811,47.889-35.551,38.336-1.278c4.114-0.626,5.121-10.991,2.557-14.057c20.586,8.402-14.856,45.305-30.67,26.835
			C997.604,763.747,1019.671,769.198,1024.42,756.055z M1079.367,859.563c7.59-2.424,22.324-20.231,14.058-34.503
			c4.438-3.936,8.124,3.749,11.501,5.112c1.147,9.129-1.519,19.12-6.39,25.557c-6.87,9.08-33.447,30.021-51.114,28.113
			c-14.165-1.527-21.047-17.69-11.501-30.669c3.706-5.039,13.445-11.169,20.445-16.612c7.448-5.793,28.744-19.794,35.78-7.667
			C1098.867,840.481,1083.877,851.638,1079.367,859.563z M1032.087,867.229c4.978,14.873,34.101,8.888,40.893,0
			C1063.154,872.304,1039.927,878.825,1032.087,867.229z M960.526,905.565c-9.318,14.798-53.403,7.572-49.837-17.89
			c3.44,5.079,5.134,11.904,11.501,14.057c-4.393-5.404-9.441-10.151-7.667-21.725c11.857-9.209,48.737,4.399,48.56,16.612
			c-0.145,9.828-14.342,12.361-28.113,10.224C941.61,910.711,955.223,910.123,960.526,905.565L960.526,905.565z M1174.01,515.476
			c2.063-0.359,2.199,1.208,3.833,1.278c-2.271-4.545-9.938-3.694-10.224-10.224c14.935,8.92,25.535,22.17,26.835,44.726
			C1189.711,540.76,1181.427,529.52,1174.01,515.476L1174.01,515.476z M784.259,422.191c-13.438,9.566-28.628,17.375-39.613,29.391
			C749.968,439.01,764.133,424.219,784.259,422.191z M647.527,671.377c0.017,3.003,3.486-0.468,2.556-2.557
			c0.445,5.945,7.057,23.281,0,24.279c5.74,1.927,5.381,9.953,6.39,16.611c-2.605-0.377-2.505-3.459-5.111-3.832
			c1.493,4.47,7.068,4.855,7.667,10.223c-15.719-1.16-20.673-42.502-8.943-56.228C654.063,663.526,649.225,669.168,647.527,671.377z
			 M1030.888,923.116c-7.972,13.146-38.187,27.377-61.337,17.892c3.608-5.523,9.802-0.019,15.334,0
			c-0.192-2.364-4.328-0.786-5.111-2.557C1001.645,932.199,1016.135,932.184,1030.888,923.116L1030.888,923.116z"/>
	</g>
</g>
<g>
	<defs>
		<rect id="SVGID_5_" x="0" y="0" width="1022" height="768"/>
	</defs>
	<clipPath id="SVGID_6_">
		<use xlink:href="#SVGID_5_"  overflow="visible"/>
	</clipPath>
	<g clip-path="url(#SVGID_6_)">
		<path fill="none" stroke="#EFEFEF" stroke-width="1.278" stroke-miterlimit="10" d="M892.688,156.081
			c-46.289-5.251-86.841-16.241-121.398-33.225c9.201-30.901,33.219-53.508,71.563-48.56
			C878.514,78.899,903.279,113.157,892.688,156.081z M777.679,92.187c-1.99,4.824-5.677,7.954-7.667,12.778
			c-6.668-0.401-22.995-1.369-25.559,6.39c11.28,19.954,41.953,28.485,70.283,37.058c28.269,8.553,61.276,19.171,90.729,16.612
			c6.014-0.522,12.581-1.425,16.611-6.389c-1.152-11.625-12.544-13.014-19.168-19.168v-12.779
			c11.935,5.466,22.854,8.474,35.78,16.612c7.567,4.765,25.708,15.855,23.002,28.112c-2.654,12.022-30.628,12.521-51.115,11.5
			c-54.613-2.72-124.394-23.436-168.679-46.003c-15.194-7.742-39.62-20.304-38.336-33.225
			C705.549,83.696,756.943,90.999,777.679,92.187L777.679,92.187z M775.122,162.47c27.462,7.042,61.057,19.022,94.563,24.279
			C840.247,212.978,784.67,193.897,775.122,162.47z"/>
		<path fill="#EFEFEF" d="M835.23,75.309c11.384,9.666,22.003,16.306,40.562,18.793c1.575,2.632,4.138,4.28,4.734,7.892
			c-27.619-1.055-46.204-11.146-63.926-22.098c16.902,16.507,40.042,26.778,68.661,31.568c1.129,2.556,1.986,5.381,2.367,8.682
			c-11.827-0.276-23.178-5.229-32.356-5.524c4.442,2.398,8.898,4.78,13.416,7.104c-21.094-4.644-39.818-12.911-54.457-23.678
			c-5.01-3.685-8.564-9.113-14.204-11.048c7.625,11.315,19.373,18.508,30.779,26.044c-10.571-3.897-19.707-9.229-28.413-14.996
			c10.614,13.064,28.004,19.351,44.196,26.834c-7.496-1.448-13.852-4.039-20.521-6.313c10.684,9.572,26.082,14.432,41.829,18.94
			c-14.261-0.47-25.327-4.137-35.515-8.68c7.298,8.224,0.057,6.201,11.131,16.636c-28.157-7.356-48.145-9.777-70.828-22.607
			c-0.103-0.628,1.031-2.311,3.833-8.008c4.697,0.383,9.339,8.139,14.825,10.822c5.719,2.799,12.259,4.679,18.151,4.734
			c-6.378-1.348-12.066-5.743-17.364-9.47c-4.907-3.455-5.641-5.805-8.891-14.58c3.273,0.196,3.991,3.471,7.313,5.896
			c3.373,2.465,6.798,5.363,11.049,6.314c-3.019-3.569-10.983-6.367-11.049-10.26c6.281,5.43,16.282,11.068,25.868,11.068
			c0.32,0,0.644-0.006,0.964-0.019c-12.88-4.483-23.991-10.734-31.568-20.521C795.36,84.175,811.856,76.138,835.23,75.309
			 M835.68,74.015l-0.494,0.018c-23.604,0.837-40.572,8.948-50.438,24.108l-0.495,0.761l0.557,0.718
			c5.102,6.589,12.122,12.032,21.298,16.482c-5.683-2.082-10.934-5.492-14.715-8.761l-2.162-1.867l0.049,2.855
			c0.007,0.42,0.076,0.824,0.198,1.214c-0.337-0.373-0.651-0.749-0.961-1.121c-1.308-1.567-2.657-3.188-5.197-3.341l-1.955-0.117
			l0.681,1.836l0.344,0.927c2.958,8,3.955,10.695,9.011,14.255l1.579,1.119c2.061,1.464,4.238,3.013,6.526,4.403
			c-2.525-0.751-5.087-1.752-7.598-2.979c-2.245-1.1-4.426-3.199-6.534-5.231c-2.918-2.812-5.674-5.467-8.749-5.718l-0.866-0.071
			l-0.384,0.78c-1.052,2.138-1.871,3.717-2.47,4.87c-1.236,2.379-1.609,3.098-1.479,3.906l0.099,0.605l0.534,0.303
			c17.506,9.9,33.726,13.731,52.506,18.167c5.908,1.396,12.019,2.838,18.628,4.564l4.841,1.265l-3.642-3.431
			c-5.915-5.574-6.333-7.313-6.774-9.157c-0.232-0.97-0.484-2.017-1.342-3.494c8.328,3.394,18.493,6.472,31.582,6.903l10.334,0.34
			l-9.94-2.846c-12.837-3.676-25.172-7.549-34.894-13.799c4.081,1.413,8.334,2.756,12.99,3.656l10.314,1.993l-9.537-4.408
			c-2.439-1.128-4.944-2.245-7.367-3.326c-9.557-4.264-19.343-8.629-27.377-14.647c5.303,3.027,11.339,6.043,17.982,8.494
			l10.354,3.818l-9.207-6.083c-0.878-0.579-1.757-1.157-2.636-1.734c-8.28-5.438-16.788-11.026-23.388-18.351
			c0.938,0.821,1.857,1.709,2.796,2.613c1.622,1.563,3.299,3.181,5.19,4.571c14.981,11.021,33.979,19.283,54.938,23.896l9.607,2.113
			l-8.749-4.499c-2.496-1.283-4.962-2.581-7.312-3.828c2.246,0.44,4.588,1.005,6.995,1.584c5.978,1.438,12.156,2.927,18.643,3.078
			l1.468,0.035L888.898,120c-0.363-3.153-1.17-6.113-2.468-9.052l-0.278-0.63l-0.68-0.114c-22.295-3.73-41.026-10.857-55.897-21.245
			c14.143,7.608,29.826,13.506,50.902,14.312l1.564,0.06l-0.256-1.545c-0.454-2.745-1.919-4.516-3.211-6.079
			c-0.623-0.753-1.211-1.464-1.688-2.26l-0.316-0.528l-0.61-0.082c-17.989-2.411-28.255-8.608-39.903-18.5L835.68,74.015z"/>
	</g>
</g>
<g>
	<defs>
		<rect id="SVGID_7_" x="0" y="0" width="1022" height="768"/>
	</defs>
	<clipPath id="SVGID_8_">
		<use xlink:href="#SVGID_7_"  overflow="visible"/>
	</clipPath>
	<g clip-path="url(#SVGID_8_)">
		<path fill="none" stroke="#EFEFEF" stroke-width="2.556" stroke-miterlimit="10" d="M228.155,53.785l4.283,7.829l7.829,4.282
			l-7.829,4.283l-4.283,7.828l-4.281-7.828l-7.83-4.283l7.83-4.282L228.155,53.785z M133.592,486.983l4.283,7.83l7.83,4.282
			l-7.83,4.281l-4.283,7.828l-4.281-7.828l-7.83-4.281l7.83-4.282L133.592,486.983z M458.171,596.881l4.282,7.83l7.83,4.28
			l-7.83,4.281l-4.282,7.831l-4.281-7.831l-7.829-4.281l7.829-4.28L458.171,596.881z M855.589,251.855l4.282,7.83l7.829,4.28
			l-7.829,4.282l-4.282,7.829l-4.281-7.829l-7.83-4.282l7.83-4.28L855.589,251.855z M187.263,273.579l4.283,7.83l7.829,4.281
			l-7.829,4.282l-4.283,7.829l-4.282-7.829l-7.829-4.282l7.829-4.281L187.263,273.579z M550.178,69.12l4.283,7.829l7.828,4.282
			l-7.828,4.282l-4.283,7.828l-4.282-7.828l-7.829-4.282l7.829-4.282L550.178,69.12z M920.761,42.285l4.282,7.829l7.829,4.282
			l-7.829,4.281l-4.282,7.829l-4.282-7.829l-7.83-4.281l7.83-4.282L920.761,42.285z M716.301,191.795l4.283,7.83l7.828,4.281
			l-7.828,4.282l-4.283,7.83l-4.281-7.83l-7.83-4.282l7.83-4.281L716.301,191.795z"/>
	</g>
</g>
<g>
	<defs>
		<rect id="SVGID_9_" x="0" y="0" width="1022" height="768"/>
	</defs>
	<clipPath id="SVGID_10_">
		<use xlink:href="#SVGID_9_"  overflow="visible"/>
	</clipPath>
	<g clip-path="url(#SVGID_10_)">
		<path fill="none" stroke="#EFEFEF" stroke-width="1.278" stroke-miterlimit="10" d="M158.5,124.737
			c-1.088,0.383-1.932,0.039-2.941-0.226c-0.059-0.825,1.904-0.797,1.583-1.132C158.159,122.867,158.31,123.743,158.5,124.737z
			 M103.977,159.125c0.14,1.896-0.563,3.657-1.811,3.62C99.128,162.654,101.497,156.795,103.977,159.125z M120.492,204.599
			c0.947,1.705,4.871,2.02,7.013,1.131c0.683,0.48-0.647,0.842-0.679,1.356c1.067-0.666,1.624-1.845,2.715-2.487
			c-0.196,2.492-2.877,4.527-5.883,3.62c-4.175-1.263-10.601-7.156-7.919-13.349c-0.02,4.167,1.429,6.868,3.619,8.824
			c-2.396-1.096-5.704-12.771,2.037-11.313c3.893,2.452,8.835,5.979,7.918,11.766C127.499,205.883,122.668,206.333,120.492,204.599
			L120.492,204.599z M141.079,122.249c1.2,0.459,3.311,0.008,3.62,1.358c-0.383,3.232-6.26,3.575-9.051,2.262
			c0.032-2.004,1.59-2.482,3.167-2.939c-1.162-0.404-2.873,0.591-3.167,1.81c-0.432-3.61,7.448-4.515,9.503-1.81
			C144.386,122.701,142.854,121.719,141.079,122.249z M166.871,124.511c0.291,0.633,0.468-0.713,1.131-0.452
			c12.911,6.765,24.21,18.391,27.147,35.519c1.748,10.196-0.194,21.081-3.619,28.28c-0.302-0.228-0.684-0.373-0.905-0.679
			c-0.578,0.376,0.883,0.607,0.679,1.356c-6.993,13.538-21.339,27.04-40.949,28.28c-5.577,0.353-10.254-0.33-14.932-1.357
			c-0.448-0.444-0.145-1.292,0-1.81c-0.782,0.047,0.021,1.68-0.905,1.583c-0.47-0.422-1.169-0.268-0.679-1.131
			c-0.437,0.092-0.178,0.877-0.905,0.679c-6.5-2.734-14.005-5.327-18.099-10.633c-1.037-1.343-1.528-3.279-1.584-5.204
			c-0.563,1.698,0.354,3.867,1.356,4.751c-8.86-8.618-17.591-19.78-16.515-38.688c0.531-9.348,3.988-18.53,8.371-25.111
			c4.63-6.955,11.279-11.832,18.099-15.158c0.664-0.258,0.84-0.133,1.132,0.453c0.171-0.511-0.022-1.159,0.905-1.357
			c1.06-0.002,1.369,0.743,1.584,1.583c0.801-0.756-1.362-1.365-0.679-2.036c6.216-2.151,13.81-4.858,22.171-4.298
			c6.843,0.458,12.837,2.713,17.873,4.525C167.587,124.172,167.201,124.314,166.871,124.511L166.871,124.511z M147.187,123.606
			c0.758-0.757-1.843-3.705-2.035-2.941C145.899,120.456,147.396,123.397,147.187,123.606z M154.428,123.833
			c-0.11,2.054,4.889,2.905,5.203,0C158.868,122.125,154.54,121.721,154.428,123.833z M144.247,127.226
			c0.462-0.452,1.957-1.048,1.583-1.583C145.682,126.409,143.694,126.512,144.247,127.226z M134.97,127.226
			c-1.494-2.828-0.539,1.006,1.132,0.226C135.557,127.544,135.61,127.039,134.97,127.226z M157.595,126.095
			c-0.672,0.2-2.185-0.595-1.811,0C156.217,126.133,158.033,126.625,157.595,126.095z M172.979,129.489
			c0.385,0.05,0.56-0.255,0-0.227c-2.01-1.894-8.684-1.585-9.955,0.679C164.9,128.206,170.577,128.046,172.979,129.489z
			 M120.039,132.204c2.601-0.143-0.479-0.269-0.905-0.227c-2.805,0.275-8.439,2.852-8.597,4.524
			C112.741,134.105,116.149,132.914,120.039,132.204z M179.766,137.407c0.69-1.436-1.434-4.229-1.584-4.072
			C179.126,134.275,179.285,136.002,179.766,137.407z M128.184,135.597c-0.229-0.983-1.668-1.945-2.263-1.811
			C126.948,134.117,127.318,135.105,128.184,135.597z M106.691,144.194c-0.178,2.93,1.063-2.945,0.68-2.941
			C107.264,141.916,106.733,143.503,106.691,144.194z M177.277,143.289c0.668-0.172,1.799-1.054,1.358-1.583
			C178.278,142.329,177.865,142.896,177.277,143.289z M183.838,145.552h-2.715c0.756,0.307,2.897,0.41,3.395,0.227
			C184.25,145.742,183.875,145.816,183.838,145.552z M107.823,151.208c1.398,3.733,6.516,6.146,11.536,4.75
			C113.664,156.224,109.834,154.624,107.823,151.208z M152.165,153.47c2.093,0.771,3.836,1.895,5.43,3.167
			C156.725,154.925,153.141,153.572,152.165,153.47z M138.59,167.722c-0.671-0.31-0.991-0.97-1.356-1.583
			C137.184,167.028,138.021,168.204,138.59,167.722z M106.691,174.736c-0.678-0.694,0.148-3.004-0.226-3.395
			C105.741,171.889,105.84,175.191,106.691,174.736z M135.649,176.772c0.699-2.243,2.675-3.208,4.073-4.751
			C138.16,173.25,135.667,174.751,135.649,176.772z M116.646,181.975c-3.09,0.515-6.175-0.701-7.691-2.487
			C109.773,181.842,114.272,183.336,116.646,181.975z M184.064,180.844c-0.892-0.022-2.169-0.837-2.487-0.68
			C182.143,180.512,183.296,181.451,184.064,180.844z M182.481,189.215c0.583-0.172,0.786-0.722,0.68-1.584
			C181.746,186.011,180.381,189.146,182.481,189.215z M157.821,188.536c3.636,0-0.581-0.241-1.132-1.13
			C156.558,188.291,157.62,187.983,157.821,188.536z M116.872,190.572c-1.325,1.078,2.428-0.704,3.846-0.452
			C119.313,189.779,117.805,189.863,116.872,190.572z M170.942,195.097c-0.235,0.653,1.162-0.507,2.264-0.679
			c2.164-0.339,4.44,0.504,5.204,0.905C176.796,193.626,172.868,193.706,170.942,195.097z M178.182,202.11
			c1.186-0.145,1.716-3.201,1.132-3.62C179.422,200.183,178.729,201.073,178.182,202.11z M143.115,205.051
			c1.448-1.542,5.291-0.162,6.334,0C148.468,203.983,143.23,203.538,143.115,205.051z M167.775,209.35
			c0.651-0.378-1.155-0.181-1.583-0.227c-1.544-0.567-2.746-1.478-3.619-2.715c0.051,0.175,0.006,0.446,0.227,0.452
			C163.707,208.441,165.054,209.583,167.775,209.35z M125.921,210.481c-0.449-0.533-0.449,0.021,0,0.227
			c1.228,0.173,1.753-0.358,2.94-0.227c0.12-0.571,1.757-0.791,1.131-1.357C129.222,210.163,127.437,210.187,125.921,210.481z
			 M153.07,212.969c1.291-0.336,2.101-2.64,1.132-3.846C154.546,210.818,153.962,211.96,153.07,212.969z M141.984,212.064
			c-0.28-0.303-1.147-1.521-0.452-0.227c0.686,1.279,2.13,2.949,4.524,2.716C144.359,214.384,142.538,212.665,141.984,212.064
			L141.984,212.064z M120.718,136.275c1.379,0.432,3.485,0.133,4.525,0.905c-6.968-0.085-14.575,1.096-15.159,8.145
			c0.938-4.907,6.159-8.491,13.575-7.692c2.938,0.316,5.726,1.757,5.203,5.883c-0.603,4.765-7.191,9.891-11.538,9.955
			c-3.942,0.058-7.52-2.738-8.146-6.562c-0.979-5.98,2.251-7.176,4.978-9.274c-1.627,0.258-2.562,1.207-3.395,2.262
			c1.333-4.68,12.34-7.862,16.063-2.489C125.2,136.696,123.829,135.276,120.718,136.275L120.718,136.275z M118.229,151.66
			c-1.171,0.258-2.644-0.361-2.94-0.227C116.017,152.012,117.451,152.301,118.229,151.66z M169.133,131.524
			c-0.507-0.315-0.832,1.064-1.132-0.452c-0.533,0.061-0.14,1.001,0.226,0.905c-2.758,0.634-4.709,2.077-4.977,5.204
			c-1.813-6.383,6.483-8.022,10.633-5.204c-0.598,0.359-2.174-0.231-3.395,0c2.552,0.521,5.29,0.958,6.563,2.715
			c0.297,0.41,1.06,1.886,1.13,2.489c0.94,7.962-14.395,6.993-14.478,0.226C163.66,133.854,166.518,133.419,169.133,131.524z
			 M171.395,141.479c-1.564,0.203-2.96-0.955-4.072-0.452C168.469,141.242,170.131,142.132,171.395,141.479z M156.463,160.709
			c-1.218-2.1-2.851-3.786-6.334-3.62c3.841,0.66,7.019,3.097,6.561,7.467c-0.965,9.233-17.606,7.941-16.967-1.132
			c0.162-2.303,1.835-3.242,3.619-4.751c-0.89-0.055-2.471,1.146-2.94,2.264c0.436-3.854,5.26-6.458,10.182-5.656
			C153.874,155.815,155.371,158.331,156.463,160.709L156.463,160.709z M149.676,169.985c1.122-0.481-3.138-0.354-3.846-0.227
			C146.995,170.186,148.285,170.344,149.676,169.985z M112.799,168.854c9.189-2.174,9.594,10.907,2.037,11.085
			c-5.484,0.13-7.723-7.068-3.395-10.181c-0.845,0.215-2.376,1.693-2.487,3.394c-1.077-4.404,4.332-7.681,7.918-4.75
			C116.149,168.469,113.708,168.271,112.799,168.854z M113.025,178.808c-0.9-0.199-2.263-1.978-2.263-1.357
			c0.001,1.399,4.236,2.212,5.657,1.13C115.302,178.542,114.16,179.058,113.025,178.808L113.025,178.808z M185.648,178.808
			c-0.335-0.1,0.09-0.29,0-0.68c-0.45,0.305-1.077,0.432-1.583,0.68c-5.969-1.729,1.049-8.273,3.62-4.525
			C188.955,176.136,187.502,178.266,185.648,178.808z M185.195,173.605c1.432,0.655,1.257,2.979,1.133,4.072
			C187.372,176.492,186.489,173.097,185.195,173.605z M163.024,184.69c-1.044,1.537-5.931,1.608-6.562-0.679
			c-1.404-5.102,8.479-6.293,6.788-0.227c0.729-0.111,0.907-1.946,0.453-2.489c3.644,1.488-2.632,8.021-5.431,4.751
			C158.276,186.052,162.184,187.017,163.024,184.69L163.024,184.69z M172.752,203.016c1.344-0.431,3.952-3.583,2.487-6.109
			c0.786-0.697,1.439,0.664,2.037,0.905c0.204,1.617-0.268,3.386-1.13,4.524c-1.217,1.607-5.923,5.315-9.05,4.979
			c-2.508-0.271-3.727-3.132-2.037-5.43c0.656-0.894,2.381-1.979,3.62-2.941c1.319-1.025,5.089-3.504,6.334-1.357
			C176.205,199.637,173.551,201.612,172.752,203.016L172.752,203.016z M164.381,204.373c0.881,2.633,6.038,1.574,7.241,0
			C169.882,205.271,165.77,206.425,164.381,204.373z M151.712,211.16c-1.649,2.62-9.454,1.34-8.823-3.167
			c0.609,0.899,0.909,2.108,2.036,2.488c-0.777-0.957-1.671-1.797-1.356-3.846c2.1-1.631,8.628,0.778,8.598,2.94
			c-0.026,1.74-2.54,2.188-4.979,1.811C148.363,212.07,150.774,211.967,151.712,211.16z M189.508,142.097
			c0.366-0.063,0.39,0.214,0.679,0.227c-0.4-0.805-1.759-0.654-1.809-1.81c2.643,1.58,4.52,3.925,4.75,7.919
			C192.288,146.573,190.821,144.583,189.508,142.097L189.508,142.097z M120.505,125.582c-2.378,1.693-5.068,3.076-7.013,5.203
			C114.434,128.56,116.942,125.941,120.505,125.582z M96.298,169.698c0.002,0.532,0.616-0.083,0.452-0.452
			c0.079,1.052,1.249,4.121,0,4.298c1.017,0.342,0.952,1.763,1.132,2.941l-0.905-0.679c0.264,0.792,1.25,0.86,1.356,1.811
			c-2.783-0.206-3.659-7.523-1.583-9.955C97.455,168.308,96.599,169.307,96.298,169.698z M164.169,214.267
			c-1.412,2.328-6.76,4.847-10.859,3.167c0.64-0.979,1.736-0.003,2.715,0c-0.034-0.419-0.766-0.14-0.904-0.453
			C158.993,215.875,161.557,215.872,164.169,214.267z"/>
	</g>
</g>
</svg>
