<?xml version="1.0" encoding="utf-8"?>
<!-- Generator: Adobe Illustrator 15.0.0, SVG Export Plug-In . SVG Version: 6.00 Build 0)  -->
<!DOCTYPE svg PUBLIC "-//W3C//DTD SVG 1.1//EN" "http://www.w3.org/Graphics/SVG/1.1/DTD/svg11.dtd">
<svg version="1.1" id="Capa_1" xmlns="http://www.w3.org/2000/svg" xmlns:xlink="http://www.w3.org/1999/xlink" x="0px" y="0px"
	 width="80px" height="80px" viewBox="0 0 80 80" enable-background="new 0 0 80 80" xml:space="preserve">
<g>
	<path fill="none" stroke="#FFFFFF" stroke-width="2.2" stroke-linecap="round" stroke-miterlimit="10" d="M70.904,14.143H9.096
		c-3.279,0-5.951,2.672-5.951,5.947v36.832c0,3.275,2.672,5.947,5.951,5.947h61.808c3.279,0,5.951-2.672,5.951-5.947V20.09
		C76.855,16.815,74.184,14.143,70.904,14.143z"/>
	<g>
		
			<circle fill="none" stroke="#FFFFFF" stroke-width="2.2" stroke-linecap="round" stroke-linejoin="round" stroke-miterlimit="10" cx="18.688" cy="26.216" r="3.687"/>
		
			<path fill="none" stroke="#FFFFFF" stroke-width="2.2" stroke-linecap="round" stroke-linejoin="round" stroke-miterlimit="10" d="
			M10.846,40.365c0-4.331,3.512-7.842,7.842-7.842c4.332,0,7.842,3.511,7.842,7.842"/>
	</g>
</g>
<g>
	<path fill="none" stroke="#FFFFFF" stroke-width="2.2" stroke-linecap="round" stroke-miterlimit="10" d="M69.223,24.462H31.299"/>
</g>
<g>
	<path fill="none" stroke="#FFFFFF" stroke-width="2.2" stroke-linecap="round" stroke-miterlimit="10" d="M69.223,31.284H31.299"/>
</g>
<g>
	<path fill="none" stroke="#FFFFFF" stroke-width="2.2" stroke-linecap="round" stroke-miterlimit="10" d="M59.109,38.664H31.299"/>
</g>
<g>
	<path fill="none" stroke="#FFFFFF" stroke-width="2.2" stroke-linecap="round" stroke-miterlimit="10" d="M69.156,51.068H49.063"/>
</g>
</svg>
