<?xml version="1.0" encoding="utf-8"?>
<!-- Generator: Adobe Illustrator 15.0.0, SVG Export Plug-In . SVG Version: 6.00 Build 0)  -->
<!DOCTYPE svg PUBLIC "-//W3C//DTD SVG 1.1//EN" "http://www.w3.org/Graphics/SVG/1.1/DTD/svg11.dtd">
<svg version="1.1" id="Capa_1" xmlns="http://www.w3.org/2000/svg" xmlns:xlink="http://www.w3.org/1999/xlink" x="0px" y="0px"
	 width="200px" height="200px" viewBox="0 0 200 200" enable-background="new 0 0 200 200" xml:space="preserve">
<g>
	<linearGradient id="SVGID_1_" gradientUnits="userSpaceOnUse" x1="61.6289" y1="63.6499" x2="21.8213" y2="63.6499">
		<stop  offset="0" style="stop-color:#ACBECD"/>
		<stop  offset="0.5515" style="stop-color:#7F9DAD"/>
		<stop  offset="1" style="stop-color:#487F93"/>
	</linearGradient>
	<polygon fill="url(#SVGID_1_)" stroke="#487F8D" stroke-width="0.6348" stroke-linecap="round" stroke-miterlimit="10" points="
		64.714,66.163 23.029,66.163 26.101,61.137 61.447,61.137 	"/>
	<linearGradient id="SVGID_2_" gradientUnits="userSpaceOnUse" x1="32.9121" y1="136.3506" x2="74.5967" y2="136.3506">
		<stop  offset="0" style="stop-color:#A9B8C5"/>
		<stop  offset="0.5515" style="stop-color:#7593A2"/>
		<stop  offset="1" style="stop-color:#3F7082"/>
	</linearGradient>
	<polygon fill="url(#SVGID_2_)" stroke="#3E6E7A" stroke-width="0.6348" stroke-linecap="round" stroke-miterlimit="10" points="
		74.597,133.838 32.912,133.838 35.984,138.863 71.33,138.863 	"/>
	<linearGradient id="SVGID_3_" gradientUnits="userSpaceOnUse" x1="8.0645" y1="121.0273" x2="32.3408" y2="121.0273">
		<stop  offset="0" style="stop-color:#ACBECD"/>
		<stop  offset="0.5515" style="stop-color:#7F9DAD"/>
		<stop  offset="1" style="stop-color:#487F93"/>
	</linearGradient>
	<polygon fill="url(#SVGID_3_)" stroke="#487F8D" stroke-width="0.6348" stroke-linecap="round" stroke-miterlimit="10" points="
		32.341,138.863 10.775,103.191 8.064,108.42 26.352,138.668 	"/>
	<linearGradient id="SVGID_4_" gradientUnits="userSpaceOnUse" x1="3.3916" y1="87.3555" x2="27.1826" y2="87.3555">
		<stop  offset="0" style="stop-color:#ACBECD"/>
		<stop  offset="0.5515" style="stop-color:#7F9DAD"/>
		<stop  offset="1" style="stop-color:#487F93"/>
	</linearGradient>
	<polygon fill="url(#SVGID_4_)" stroke="#487F8D" stroke-width="0.6348" stroke-linecap="round" stroke-miterlimit="10" points="
		6.07,105.326 27.183,69.384 21.293,69.488 3.392,99.964 	"/>
	<linearGradient id="SVGID_5_" gradientUnits="userSpaceOnUse" x1="65.1504" y1="79.1479" x2="89.4746" y2="79.1479">
		<stop  offset="0" style="stop-color:#ACBECD"/>
		<stop  offset="0.5515" style="stop-color:#7F9DAD"/>
		<stop  offset="1" style="stop-color:#487F93"/>
	</linearGradient>
	<polygon fill="url(#SVGID_5_)" stroke="#487F8D" stroke-width="0.6348" stroke-linecap="round" stroke-miterlimit="10" points="
		86.601,97.019 65.15,61.277 71.04,61.277 89.475,91.978 	"/>
	<linearGradient id="SVGID_6_" gradientUnits="userSpaceOnUse" x1="70.4238" y1="112.709" x2="94.1777" y2="112.709">
		<stop  offset="0" style="stop-color:#ACBECD"/>
		<stop  offset="0.5515" style="stop-color:#7F9DAD"/>
		<stop  offset="1" style="stop-color:#487F93"/>
	</linearGradient>
	<polygon fill="url(#SVGID_6_)" stroke="#487F8D" stroke-width="0.6348" stroke-linecap="round" stroke-miterlimit="10" points="
		70.424,130.691 91.329,94.727 94.178,100.034 76.226,130.691 	"/>
	<path fill="#8D9297" d="M20.436,100.826c0.086,2.914,2.127,6.965,6.229,6.863c1.54-0.037,3.404-0.434,5.517-2.025
		c-0.354,0.934-0.875,2.551-1.517,4.303c-1.66,0.885-3.738,1.018-5.695,1.018c-5.181,0-9.379-5.076-9.379-11.336
		c0-6.261,4.504-10.328,9.685-10.328c2.071,0.034,3.5,0.181,4.461,0.405c0.02,1.814-0.026,2.686-0.017,3.722
		c-1.939-1.22-3.552-1.354-4.817-1.262C21.324,92.445,20.26,96.753,20.436,100.826z"/>
	<path fill="#8D9297" d="M48.273,110.789c0,0-4.024,1.285-10.197-10.84C36.693,97.011,35.83,97.9,35.83,97.9
		s0.059,7.975,0.072,10.348c0,0.84,1.087,1.973,1.087,1.973h-4.256c0,0,0.527-0.984,0.527-1.824c0-0.633,0.132-10.621,0-15.782
		c-0.101-1.664-1.079-2.79-1.079-2.79h5.055l7.891,12.376c0,0,0.851,0.365,0.742-0.73c-0.068-0.69,0.262-10.167-0.902-11.621
		c1.746,0,4.313,0,4.313,0s-0.931,0.635-0.926,2.089C48.357,93.395,48.273,110.789,48.273,110.789z"/>
	<path fill="#8D9297" d="M64.078,103.803c-0.159-3.91-3.959-5.109-3.959-5.109s2.699-1.49,2.927-3.967
		c0.228-2.478-2.182-4.902-4.069-4.902c-1.142,0-9.229,0-9.229,0s0.728,0.421,0.728,1.139c0,4.033,0,17.413,0,17.944
		c0,0.629-0.728,1.158-0.728,1.158s7.743,0,9.648,0S64.236,107.711,64.078,103.803z M55.255,94.833c0-1.788,0-2.308,0-2.308
		s1.419-0.25,2.086,0.26c0.951,0.727,0.843,1.317,0.843,2.308c0,0.895-0.424,1.944-1.269,2.465c-0.844,0.52-1.66,0.249-1.66,0.249
		S55.255,96.621,55.255,94.833z M58.082,107.26c-1.036,0.639-2.827,0.305-2.827,0.305s0-1.453,0-3.648c0-2.193,0-3.458,0-3.458
		s1.513-0.321,2.427,0.154c1.132,0.588,1.853,2.092,1.853,3.305C59.534,105.014,59.117,106.621,58.082,107.26z"/>
	<path fill="#8D9297" d="M73.342,110.828c0,0-4.07-0.979-4.808-3.176c-0.735-2.197-5.974-17.828-5.974-17.828h5.391l3.863,14.47
		c0,0,0.674,1.707,1.527-0.943c0.597-1.854,2.48-8.133,2.785-11.5c0.132-1.449-1.078-2.027-1.078-2.027h4.448L73.342,110.828z"/>
	<path fill="#8D9297" d="M105.008,77.155c0.187,2.853,2.55,4.5,4.963,4.444c0.906-0.022,2.004-0.396,3.247-1.284
		c0,0.305-0.14,1.057-0.823,2.056c-0.978,0.493-2.268,0.449-3.42,0.449c-3.047,0-6.022-2.831-6.022-6.322
		c0-3.492,3.156-5.761,6.203-5.761c1.219,0.019,2.797,0.405,3.362,0.53c0.012,1.011-0.016,1.498-0.011,2.075
		c-0.555-0.646-1.142-1.049-3.571-1.294C106.831,72.193,104.854,73.898,105.008,77.155z"/>
	<path fill="#8D9297" d="M129.289,93.596c0.187,2.853,2.55,4.5,4.963,4.444c0.905-0.022,2.003-0.395,3.247-1.285
		c0,0.306-0.141,1.059-0.824,2.057c-0.977,0.493-2.267,0.45-3.42,0.45c-3.047,0-6.021-2.831-6.021-6.323
		c0-3.492,3.156-5.76,6.203-5.76c1.216,0.019,2.797,0.405,3.362,0.53c0.011,1.012-0.017,1.498-0.011,2.076
		c-0.555-0.646-1.143-1.05-3.571-1.294C131.111,88.635,129.135,90.339,129.289,93.596z"/>
	<path fill="#8D9297" d="M133.426,111.217c0.187,2.852,2.553,4.5,4.965,4.445c0.906-0.023,2.001-0.398,3.244-1.285
		c0,0.305-0.137,1.057-0.82,2.055c-0.978,0.494-2.27,0.449-3.42,0.449c-3.047,0-6.022-2.83-6.022-6.322s3.154-5.76,6.201-5.76
		c1.219,0.02,2.797,0.404,3.362,0.529c0.011,1.012-0.017,1.498-0.009,2.076c-0.555-0.646-1.142-1.051-3.573-1.295
		C135.251,106.254,133.271,107.959,133.426,111.217z"/>
	<path fill="#8D9297" d="M113.028,99.401c0,0-1.287,0.334-6.84-7.625c-0.928-1.664-2.039-1.675-2.039-1.675
		c0.024,2.832,0.027,4.843,0.049,7.864c0,0.475,0.728,1.116,0.728,1.116h-2.322c0,0,0.354-0.558,0.354-1.033
		c0-0.356,0.088-6.006,0-8.925c-0.066-0.942-0.725-1.579-0.725-1.579h2.522l6.81,8.705c0,0,0.571,0.206,0.497-0.413
		c-0.047-0.391,0.176-7.455-0.604-8.276c1.17,0,2.246,0,2.246,0s-0.623,0.358-0.621,1.182
		C113.083,89.563,113.028,99.401,113.028,99.401z"/>
	<path fill="#8D9297" d="M167.129,99.401c0,0-1.284,0.334-6.84-7.625c-0.928-1.664-2.039-1.675-2.039-1.675
		c0.024,2.832,0.027,4.843,0.049,7.864c0,0.475,0.728,1.116,0.728,1.116h-2.322c0,0,0.354-0.558,0.354-1.033
		c0-0.356,0.088-6.006,0-8.925c-0.066-0.942-0.722-1.579-0.722-1.579h2.522l6.807,8.705c0,0,0.571,0.206,0.5-0.413
		c-0.047-0.391,0.176-7.455-0.606-8.276c1.172,0,2.245,0,2.245,0s-0.623,0.358-0.621,1.182
		C167.187,89.563,167.129,99.401,167.129,99.401z"/>
	<path fill="#8D9297" d="M130.271,117.066c0,0-1.287,0.332-6.84-7.627c-0.928-1.664-2.04-1.676-2.04-1.676
		c0.025,2.832,0.028,4.842,0.05,7.865c0,0.475,0.728,1.117,0.728,1.117h-2.322c0,0,0.354-0.561,0.354-1.035
		c0-0.357,0.088-6.006,0-8.926c-0.069-0.939-0.725-1.576-0.725-1.576h2.522l6.81,8.703c0,0,0.571,0.205,0.497-0.414
		c-0.047-0.389,0.176-7.453-0.604-8.277c1.17,0,2.243,0,2.243,0s-0.623,0.359-0.621,1.182
		C130.326,107.227,130.271,117.066,130.271,117.066z"/>
	<path fill="#8D9297" d="M186.87,82.933c0,0-1.285,0.333-6.84-7.626c-0.928-1.664-2.04-1.675-2.04-1.675
		c0.024,2.833,0.027,4.843,0.05,7.865c0,0.474,0.728,1.117,0.728,1.117h-2.322c0,0,0.354-0.558,0.354-1.034
		c0-0.356,0.088-6.006,0-8.925c-0.065-0.941-0.722-1.579-0.722-1.579h2.52l6.811,8.705c0,0,0.57,0.205,0.499-0.413
		c-0.047-0.391,0.176-7.455-0.606-8.277c1.172,0,2.245,0,2.245,0s-0.623,0.358-0.62,1.182
		C186.928,73.093,186.87,82.933,186.87,82.933z"/>
	<path fill="#8D9297" d="M104.956,113.035c-0.091-2.234-2.262-2.918-2.262-2.918s1.543-0.854,1.672-2.268
		c0.129-1.416-1.246-2.801-2.325-2.801c-0.652,0-5.04,0-5.04,0s0.416,0.24,0.416,0.652c0,2.303,0,9.947,0,10.252
		c0,0.357-0.416,0.66-0.416,0.66s4.192,0,5.278,0C103.369,116.613,105.047,115.266,104.956,113.035z M99.395,107.91
		c0-1.021,0-1.688,0-1.688s1.477-0.121,1.935,0.021c1.423,0.447,1.429,1.248,1.429,1.814c0,0.51-0.056,0.916-1.494,1.504
		c-0.525,0.213-1.869,0.158-1.869,0.158S99.395,108.932,99.395,107.91z M102.637,115.166c-1.576,0.619-3.242,0.018-3.242,0.018
		s0-0.83,0-2.084s0-2.271,0-2.271s1.797-0.299,2.921,0.293c0.846,0.447,1.438,1.285,1.438,1.979
		C103.754,113.727,103.646,114.814,102.637,115.166z"/>
	<path fill="#8D9297" d="M127.843,134.104c0,0-1.763-0.561-2.183-1.816s-3.985-10.197-3.985-10.197h2.265l2.846,8.781
		c0,0,0.934,1.012,1.422-0.504c0.341-1.059,2.119-5.193,2.292-7.119c0.077-0.828-0.617-1.158-0.617-1.158h2.547L127.843,134.104z"/>
	<path fill="#8D9297" d="M120.215,70.795c-3.682,0-6.665,2.682-6.665,5.99c0,3.309,2.983,5.991,6.665,5.991
		c3.678,0,6.664-2.683,6.664-5.991C126.879,73.478,123.893,70.795,120.215,70.795z M120.188,81.59c-2.951,0-4.508-2.15-4.508-4.805
		c0-2.654,1.557-4.805,4.508-4.805c2.953,0,4.562,2.151,4.562,4.805C124.749,79.44,123.141,81.59,120.188,81.59z"/>
	<path fill="#8D9297" d="M168.208,70.795c-3.681,0-6.665,2.682-6.665,5.99c0,3.309,2.984,5.991,6.665,5.991s6.661-2.683,6.661-5.991
		C174.869,73.478,171.889,70.795,168.208,70.795z M168.184,81.59c-2.954,0-4.51-2.15-4.51-4.805c0-2.654,1.556-4.805,4.51-4.805
		c2.95,0,4.556,2.151,4.556,4.805C172.739,79.44,171.134,81.59,168.184,81.59z"/>
	<path fill="#8D9297" d="M148.774,87.366c-3.678,0-6.662,2.682-6.662,5.991c0,3.308,2.984,5.99,6.662,5.99
		c3.681,0,6.664-2.682,6.664-5.99C155.438,90.048,152.455,87.366,148.774,87.366z M148.75,98.162c-2.951,0-4.507-2.15-4.507-4.804
		c0-2.654,1.556-4.805,4.507-4.805c2.95,0,4.559,2.15,4.559,4.805C153.309,96.011,151.7,98.162,148.75,98.162z"/>
	<path fill="#8D9297" d="M160.942,121.912c-3.681,0-6.664,2.682-6.664,5.988s2.983,5.99,6.664,5.99s6.664-2.684,6.664-5.99
		S164.623,121.912,160.942,121.912z M160.918,132.707c-2.951,0-4.51-2.152-4.51-4.807s1.559-4.805,4.51-4.805
		c2.95,0,4.556,2.15,4.556,4.805S163.868,132.707,160.918,132.707z"/>
	<path fill="#8D9297" d="M101.573,122.314c-0.651,0-5.039,0-5.039,0s0.416,0.242,0.416,0.65c0,2.305,0,9.949,0,10.254
		c0,0.357-0.416,0.66-0.416,0.66s4.191,0,5.279,0c5.357,0,5.357-6.498,5.357-6.498S106.916,122.314,101.573,122.314z
		 M103.518,131.637c-2.029,1.514-4.77,0.813-4.77,0.813v-8.941c0,0,2.913-0.902,5.121,0.938c0.941,0.795,1.422,2.281,1.381,3.32
		C105.225,128.393,105.236,130.74,103.518,131.637z"/>
	<path fill="#8D9297" d="M116.231,131.887c-0.307,0.258-0.65,0.342-0.796,0.416c-2.048,0.711-4.482,0.146-4.482,0.146v-4.416
		c0.755-0.072,1.814-0.061,2.847,0.346c-0.003-0.023,0-1.525,0-1.525h-2.847v-3.346c0,0,2.001-0.59,3.9,0.162
		c-0.002-0.023,0-1.527,0-1.527h-6.115c0,0,0.414,0.414,0.414,0.822v10.254c0,0.357-0.414,0.66-0.414,0.66s4.191,0,5.278,0
		c0.807,0,0.681,0,1.526,0C115.905,133.756,116.306,132.482,116.231,131.887z"/>
	<path fill="#8D9297" d="M185.912,131.887c-0.305,0.258-0.647,0.342-0.793,0.416c-2.051,0.711-4.482,0.146-4.482,0.146v-4.416
		c0.755-0.072,1.814-0.061,2.846,0.346c-0.002-0.023,0-1.525,0-1.525h-2.846v-3.346c0,0,2.001-0.59,3.9,0.162
		c-0.003-0.023,0-1.527,0-1.527h-6.116c0,0,0.415,0.414,0.415,0.822v10.254c0,0.357-0.415,0.66-0.415,0.66s4.191,0,5.281,0
		c0.808,0,0.678,0,1.523,0C185.588,133.756,185.989,132.482,185.912,131.887z"/>
	<path fill="#8D9297" d="M144.816,133.908c0,0-0.612-0.375-1.516-2.184c-1.363-2.578-3.732-9.582-3.732-9.582h-2.251
		c0,0,0.195,0.672-0.063,1.436c-0.931,2.764-3.357,8.77-3.687,9.234c-0.747,1.041-1.2,1.096-1.2,1.096l3.132-0.1
		c0,0-0.691-0.33-0.617-1.16c0.011-0.076,0.59-1.588,1.257-3.332h4.617c0.511,1.279,0.969,2.445,1.101,2.844
		c0.338,1.014-0.041,1.748-0.041,1.748H144.816z M137.428,128.023c-0.687,0-0.615-0.439-0.615-0.439s1.178-3.115,1.317-3.549
		c0.327-0.482,0.903,1.01,0.903,1.01s0.469,1.152,1.029,2.539c0,0,0.071,0.439-0.618,0.439H137.428z"/>
	<path fill="#8D9297" d="M154.242,116.709c0,0-0.609-0.373-1.516-2.184c-1.363-2.576-3.732-9.578-3.732-9.578h-2.248
		c0,0,0.194,0.67-0.066,1.432c-0.933,2.766-3.356,8.771-3.686,9.236c-0.747,1.043-1.197,1.094-1.197,1.094l3.129-0.096
		c0,0-0.691-0.332-0.614-1.16c0.008-0.08,0.587-1.59,1.257-3.336h4.614c0.511,1.279,0.969,2.449,1.101,2.846
		c0.341,1.014-0.041,1.746-0.041,1.746H154.242z M146.855,110.828c-0.688,0-0.617-0.443-0.617-0.443s1.181-3.113,1.32-3.549
		c0.324-0.482,0.9,1.012,0.9,1.012s0.469,1.152,1.029,2.537c0,0.002,0.071,0.443-0.618,0.443H146.855z"/>
	<path fill="#8D9297" d="M180.411,116.709c0,0-0.609-0.373-1.515-2.184c-1.361-2.576-3.733-9.578-3.733-9.578h-2.248
		c0,0,0.192,0.67-0.063,1.432c-0.934,2.766-3.36,8.771-3.687,9.236c-0.75,1.043-1.2,1.094-1.2,1.094l3.13-0.096
		c0,0-0.692-0.332-0.618-1.16c0.012-0.08,0.591-1.59,1.26-3.336h4.614c0.511,1.279,0.969,2.449,1.101,2.846
		c0.341,1.014-0.041,1.746-0.041,1.746H180.411z M173.022,110.828c-0.687,0-0.615-0.443-0.615-0.443s1.181-3.113,1.32-3.549
		c0.327-0.482,0.9,1.012,0.9,1.012s0.47,1.152,1.029,2.537c0,0.002,0.071,0.443-0.615,0.443H173.022z"/>
	<path fill="#8D9297" d="M180.411,99.24c0,0-0.609-0.375-1.515-2.185c-1.361-2.577-3.733-9.58-3.733-9.58h-2.248
		c0,0,0.192,0.67-0.063,1.434c-0.934,2.766-3.36,8.771-3.687,9.236c-0.75,1.042-1.2,1.095-1.2,1.095l3.13-0.098
		c0,0-0.692-0.332-0.618-1.16c0.012-0.079,0.591-1.591,1.26-3.334h4.614c0.511,1.279,0.969,2.448,1.101,2.843
		c0.341,1.015-0.041,1.749-0.041,1.749H180.411z M173.022,93.357c-0.687,0-0.615-0.442-0.615-0.442s1.181-3.115,1.32-3.55
		c0.327-0.482,0.9,1.01,0.9,1.01s0.47,1.153,1.029,2.54c0,0,0.071,0.442-0.615,0.442H173.022z"/>
	<path fill="#8D9297" d="M126.818,99.24c0,0-0.609-0.375-1.515-2.185c-1.361-2.577-3.73-9.58-3.73-9.58h-2.251
		c0,0,0.195,0.67-0.063,1.434c-0.934,2.766-3.357,8.771-3.687,9.236c-0.75,1.042-1.2,1.095-1.2,1.095l3.132-0.098
		c0,0-0.691-0.332-0.617-1.16c0.011-0.079,0.588-1.591,1.257-3.334h4.617c0.511,1.279,0.969,2.448,1.101,2.843
		c0.338,1.015-0.041,1.749-0.041,1.749H126.818z M119.433,93.357c-0.687,0-0.615-0.442-0.615-0.442s1.178-3.115,1.317-3.55
		c0.327-0.482,0.9,1.01,0.9,1.01s0.472,1.153,1.029,2.54c0,0,0.071,0.442-0.615,0.442H119.433z"/>
	<path fill="#8D9297" d="M119.078,116.686c0,0-0.609-0.377-1.516-2.186c-1.363-2.578-3.732-9.58-3.732-9.58h-2.251
		c0,0,0.195,0.67-0.063,1.434c-0.931,2.766-3.354,8.773-3.684,9.236c-0.75,1.043-1.2,1.096-1.2,1.096l3.129-0.1
		c0,0-0.691-0.33-0.614-1.16c0.008-0.078,0.587-1.588,1.257-3.332h4.614c0.511,1.277,0.969,2.447,1.101,2.844
		c0.341,1.016-0.041,1.748-0.041,1.748H119.078z M111.691,110.803c-0.688,0-0.617-0.441-0.617-0.441s1.181-3.115,1.32-3.549
		c0.324-0.484,0.9,1.01,0.9,1.01s0.469,1.152,1.029,2.539c0,0,0.071,0.441-0.618,0.441H111.691z"/>
	<path fill="#8D9297" d="M148.141,132.217c0.044-2.68,0.126-7.836,0.126-8.275c0-0.598,0.187-1.799,0.187-1.799h-2.248
		c0,0,0.2,1.625,0.242,3.609c0.06,2.99-0.028,6.801-0.028,7.098c0,0.49-0.428,0.963-0.428,0.963h1.232h0.89h4.729
		c0,0,0.557-1.268,0.855-1.984C151.47,133.031,149.315,132.619,148.141,132.217z"/>
	<path fill="#8D9297" d="M184.281,97.713c0.044-2.679,0.129-7.835,0.129-8.276c0-0.597,0.188-1.798,0.188-1.798h-2.248
		c0,0,0.197,1.625,0.238,3.609c0.061,2.992-0.027,6.801-0.027,7.097c0,0.492-0.426,0.964-0.426,0.964h1.23h0.889h4.729
		c0,0,0.56-1.268,0.859-1.985C187.614,98.527,185.456,98.114,184.281,97.713z"/>
	<path fill="#8D9297" d="M166.651,111.609c0.009-2.135,0.047-5.377,0.047-5.576c0-0.494,0.428-0.965,0.428-0.965h-1.232h-0.153
		h-0.156h-1.229c0,0,0.425,0.471,0.425,0.965c0,0.199,0.041,3.441,0.05,5.576c-0.009,2.082-0.05,3.9-0.05,4.102
		c0,0.494-0.425,0.965-0.425,0.965h1.229h0.156h0.153h1.232c0,0-0.428-0.471-0.428-0.965
		C166.698,115.51,166.66,113.691,166.651,111.609z"/>
	<path fill="#8D9297" d="M159.974,77.463c0.008-2.133,0.046-5.376,0.046-5.576c0-0.492,0.429-0.964,0.429-0.964h-1.232h-0.153
		h-0.157h-1.229c0,0,0.426,0.472,0.426,0.964c0,0.2,0.041,3.443,0.047,5.576c-0.006,2.083-0.047,3.902-0.047,4.104
		c0,0.492-0.426,0.964-0.426,0.964h1.229h0.157h0.153h1.232c0,0-0.429-0.472-0.429-0.964
		C160.02,81.365,159.981,79.546,159.974,77.463z"/>
	<path fill="#8D9297" d="M140.719,94.21c0.008-2.133,0.046-5.376,0.046-5.576c0-0.493,0.429-0.965,0.429-0.965h-1.229h-0.157h-0.156
		h-1.229c0,0,0.426,0.472,0.426,0.965c0,0.2,0.041,3.443,0.049,5.576c-0.008,2.083-0.049,3.902-0.049,4.104
		c0,0.492-0.426,0.964-0.426,0.964h1.229h0.156h0.157h1.229c0,0-0.429-0.472-0.429-0.964
		C140.765,98.113,140.727,96.293,140.719,94.21z"/>
	<path fill="#8D9297" d="M146.419,77.463c0.006-2.133,0.047-5.376,0.047-5.576c0-0.492,0.429-0.964,0.429-0.964h-1.232h-0.157
		h-0.153h-1.229c0,0,0.426,0.472,0.426,0.964c0,0.2,0.041,3.443,0.046,5.576c-0.005,2.083-0.046,3.902-0.046,4.104
		c0,0.492-0.426,0.964-0.426,0.964h1.229h0.153h0.157h1.232c0,0-0.429-0.472-0.429-0.964
		C146.466,81.365,146.425,79.546,146.419,77.463z"/>
	<path fill="#8D9297" d="M191.882,112.537c0-0.131,0-0.268,0.003-0.406c0-0.572,0.148-0.711,0.148-0.711l4.575-6.73h-2.8
		c0,0,1.126,0.547,0.311,1.893c-0.129,0.492-3.148,3.973-3.148,3.973s-3.02-3.48-3.148-3.973c-0.817-1.346,0.311-1.893,0.311-1.893
		h-2.8l4.575,6.73c0,0,0.148,0.221,0.148,0.711c0,0.139,0.003,0.275,0.003,0.406c-0.009,2.082-0.05,3.9-0.05,4.104
		c0,0.492-0.425,0.965-0.425,0.965h1.229h0.156h0.153h1.232c0,0-0.428-0.473-0.428-0.965
		C191.929,116.438,191.888,114.619,191.882,112.537z"/>
	<path fill="#8D9297" d="M191.882,112.537c0-0.131,0-0.268,0.003-0.406c0-0.572,0.148-0.711,0.148-0.711l4.575-6.73h-2.8
		c0,0,1.126,0.547,0.311,1.893c-0.129,0.492-3.148,3.973-3.148,3.973s-3.02-3.48-3.148-3.973c-0.817-1.346,0.311-1.893,0.311-1.893
		h-2.8l4.575,6.73c0,0,0.148,0.221,0.148,0.711c0,0.139,0.003,0.275,0.003,0.406c-0.009,2.082-0.05,3.9-0.05,4.104
		c0,0.492-0.425,0.965-0.425,0.965h1.229h0.156h0.153h1.232c0,0-0.428-0.473-0.428-0.965
		C191.929,116.438,191.888,114.619,191.882,112.537z"/>
	<path fill="#8D9297" d="M153.954,76.421c-1.285-0.73-4.046-0.697-3.985-2.885c0-0.362,0.019-0.92,0.678-1.23
		c2.234-1.055,3.549,0.406,4.521,0.398c-0.184-0.083-0.15-1.024-0.15-1.541c-0.53-0.214-1.438-0.367-2.907-0.367
		c-1.663,0-4.09,1.475-4.09,3.136c0.006,2.158,1.954,2.727,3.735,3.314c0.961,0.317,1.51,0.711,1.813,1.008
		c0.488,0.565,0.875,1.217,0.757,1.906c-0.184,1.379-3.596,2.311-6.282,0.368c0,0.657,0.115,1.379,0.532,1.934
		c1.795,0.409,2.53,0.283,3.535,0.315c2.69,0.081,4.087-1.662,4.087-3.325C156.383,77.297,153.957,76.422,153.954,76.421z"/>
	<path fill="#8D9297" d="M192.579,127.533c-1.284-0.729-4.046-0.695-3.982-2.883c0-0.363,0.017-0.922,0.675-1.232
		c2.234-1.055,3.549,0.406,4.521,0.398c-0.184-0.082-0.15-1.023-0.15-1.541c-0.53-0.213-1.438-0.367-2.907-0.367
		c-1.663,0-4.09,1.475-4.09,3.137c0.006,2.158,1.957,2.727,3.736,3.314c0.963,0.318,1.51,0.711,1.812,1.008
		c0.491,0.564,0.875,1.217,0.758,1.904c-0.185,1.381-3.596,2.314-6.283,0.371c0,0.654,0.115,1.377,0.535,1.934
		c1.795,0.408,2.528,0.283,3.532,0.313c2.69,0.084,4.087-1.66,4.087-3.322C195.009,128.41,192.582,127.535,192.579,127.533z"/>
	<path fill="#8D9297" d="M142.997,82.489c0,0-0.365-0.289-0.489-1.073c-0.041-0.265-1.399-9.4-1.399-9.709
		c0-0.437,0.57-0.785,0.57-0.785s-2.764-0.156-2.967,0.352c-0.203,0.509-1.293,5.124-3.48,7.384c-2.188-2.26-3.28-6.875-3.48-7.384
		c-0.203-0.508-2.967-0.352-2.967-0.352s0.57,0.348,0.57,0.785c0,0.309-1.361,9.444-1.402,9.709
		c-0.121,0.784-0.485,1.073-0.485,1.073h2.665c0,0-0.464-0.522-0.464-1.104c0-0.582,0.889-7.077,0.889-7.077
		s0.102-0.753,0.124-1.068c0.088-0.168,0.236-0.06,0.485,0.198c2.894,7.383,4.065,8.906,4.065,8.906s1.169-1.523,4.065-8.906
		c0.249-0.258,0.395-0.366,0.482-0.198c0.022,0.314,0.124,1.068,0.124,1.068s0.889,6.495,0.889,7.077
		c0,0.582-0.461,1.104-0.461,1.104H142.997z"/>
	<path fill="#8D9297" d="M173.599,128.01c1.513-0.578,2.907-1.553,2.907-2.656c0-3.963-3.604-3.211-5.504-3.211h-2.207
		c0,0,0.415,0.414,0.415,0.822v10.254c0,0.357-0.415,0.66-0.415,0.66s1.4,0,2.572,0c0,0-0.453-0.234-0.453-0.645
		c0-0.416,0-4.67,0-4.67c0.003,0,0.009,0,0.014,0v-0.986c-0.005-0.002-0.011-0.004-0.014-0.006v-4.359
		c0.379-0.25,0.843-0.24,1.343-0.24c1.304,0,2.36,1,2.36,2.232c0.071,1.627-1.729,2.504-3.033,2.506l0.461,0.834
		c0.813,1.328,4.488,7.014,6.709,4.961C178.783,133.477,176.115,132.623,173.599,128.01z"/>
	<path fill="#8D9297" d="M160.272,110.82c1.51-0.578,2.907-1.553,2.907-2.654c0-3.967-3.602-3.213-5.507-3.213h-2.204
		c0,0,0.415,0.414,0.415,0.824v10.252c0,0.357-0.415,0.66-0.415,0.66s1.4,0,2.572,0c0,0-0.453-0.232-0.453-0.646
		c0-0.412,0-4.666,0-4.666c0.003,0,0.009,0,0.014,0v-0.988c-0.005-0.004-0.011-0.004-0.014-0.006v-4.359
		c0.382-0.252,0.843-0.238,1.343-0.238c1.304,0,2.36,1,2.36,2.232c0.071,1.625-1.729,2.5-3.03,2.502l0.458,0.836
		c0.813,1.33,4.488,7.014,6.709,4.961C165.46,116.287,162.79,115.434,160.272,110.82z"/>
</g>
</svg>