<?xml version="1.0" encoding="utf-8"?>
<!-- Generator: Adobe Illustrator 15.0.0, SVG Export Plug-In . SVG Version: 6.00 Build 0)  -->
<!DOCTYPE svg PUBLIC "-//W3C//DTD SVG 1.1//EN" "http://www.w3.org/Graphics/SVG/1.1/DTD/svg11.dtd">
<svg version="1.1" id="Capa_1" xmlns="http://www.w3.org/2000/svg" xmlns:xlink="http://www.w3.org/1999/xlink" x="0px" y="0px"
	 width="200px" height="200px" viewBox="0 0 200 200" enable-background="new 0 0 200 200" xml:space="preserve">
<g>
	<g>
		<radialGradient id="SVGID_1_" cx="137.0156" cy="73.9351" r="48.0878" gradientUnits="userSpaceOnUse">
			<stop  offset="0" style="stop-color:#FFFFFF"/>
			<stop  offset="1" style="stop-color:#4E4E4E"/>
		</radialGradient>
		<circle fill="url(#SVGID_1_)" cx="124.534" cy="100" r="36.211"/>
		<radialGradient id="SVGID_2_" cx="85.7168" cy="73.9351" r="48.0876" gradientUnits="userSpaceOnUse">
			<stop  offset="0" style="stop-color:#FFFFFF"/>
			<stop  offset="1" style="stop-color:#4E4E4E"/>
		</radialGradient>
		<circle fill="url(#SVGID_2_)" cx="73.234" cy="100" r="36.211"/>
		<radialGradient id="SVGID_3_" cx="108.5635" cy="81.7485" r="35.6996" gradientUnits="userSpaceOnUse">
			<stop  offset="0" style="stop-color:#FFFFFF"/>
			<stop  offset="1" style="stop-color:#4E4E4E"/>
		</radialGradient>
		<circle fill="url(#SVGID_3_)" cx="99.296" cy="101.1" r="26.882"/>
	</g>
	<g>
		<polygon fill="#FFFFFF" points="172.829,109.201 172.829,105.99 160.625,105.99 160.625,102.136 169.298,102.136 169.298,98.924 
			160.625,98.924 160.625,96.676 172.829,96.676 172.829,92.982 153.236,92.982 153.236,109.201 		"/>
		<polygon fill="#FFFFFF" points="183.085,109.201 183.085,102.136 191.758,102.136 191.758,98.924 183.085,98.924 183.085,96.676 
			195.292,96.676 195.292,92.982 175.697,92.982 175.697,109.201 		"/>
		<path fill="#FFFFFF" d="M129.322,103.748h6.831c0.147,0.746,0.451,1.026,0.906,1.417c0.743,0.633,1.805,0.949,3.185,0.949
			c1.03,0,1.823-0.164,2.384-0.488c0.553-0.323,0.834-0.699,0.834-1.126c0-0.408-0.262-0.772-0.795-1.094
			c-0.524-0.321-1.755-0.622-3.683-0.908c-3.158-0.477-5.409-1.112-6.756-1.904c-1.358-0.79-2.035-1.798-2.035-3.025
			c0-0.806,0.346-1.565,1.04-2.282c0.695-0.716,1.739-1.279,3.132-1.69c1.395-0.409,3.307-0.615,5.735-0.615
			c2.974,0,5.25,0.374,6.813,1.12c1.563,0.745,2.491,1.932,2.791,3.559h-6.775c-0.182-0.709-0.563-0.955-1.143-1.276
			c-0.576-0.323-1.378-0.483-2.398-0.483c-0.838,0-1.471,0.12-1.897,0.358c-0.424,0.239-0.635,0.529-0.635,0.872
			c0,0.248,0.173,0.474,0.523,0.673c0.338,0.208,1.142,0.399,2.415,0.579c3.149,0.456,5.404,0.917,6.766,1.384
			c1.361,0.469,2.352,1.049,2.973,1.741c0.621,0.69,0.929,1.466,0.929,2.322c0,1.007-0.412,1.934-1.237,2.782
			c-0.826,0.85-1.982,1.493-3.466,1.933c-1.482,0.438-3.357,0.659-5.611,0.659c-3.965,0-6.711-0.516-8.234-1.542
			C130.386,106.636,129.522,105.331,129.322,103.748z"/>
		<path fill="#FFFFFF" d="M20.961,103.277h7.275c-0.443,1.178-1.135,2.534-2.079,3.324c-0.945,0.79-2.122,1.386-3.523,1.786
			c-1.401,0.401-3.187,0.602-5.354,0.602c-2.63,0-4.776-0.243-6.443-0.733c-1.665-0.489-3.104-1.349-4.314-2.582
			c-1.21-1.23-1.814-2.808-1.814-4.73c0-2.562,1.065-4.531,3.192-5.908c2.129-1.375,5.139-2.064,9.03-2.064
			c3.048,0,5.441,0.396,7.186,1.187c1.743,0.789,3.168,2.818,4.015,4.454l-6.735,0.123c-0.229-0.471-0.472-0.814-0.726-1.032
			c-0.419-0.365-0.929-0.646-1.535-0.843c-0.604-0.197-1.28-0.296-2.028-0.296c-1.691,0-2.99,0.436-3.893,1.308
			c-0.683,0.646-1.023,1.663-1.023,3.046c0,1.716,0.408,2.891,1.221,3.526c0.816,0.636,1.963,0.954,3.438,0.954
			c1.431,0,2.611-0.14,3.244-0.772C20.905,103.813,20.632,104.258,20.961,103.277z"/>
		<path fill="#FFFFFF" d="M30.088,101.062c0-2.564,1.035-4.562,3.102-5.99c2.07-1.429,4.951-2.144,8.643-2.144
			c3.788,0,6.703,0.702,8.754,2.105c2.044,1.405,3.07,3.37,3.07,5.898c0,1.836-0.448,3.343-1.34,4.519
			c-0.896,1.174-2.191,2.09-3.88,2.741c-1.694,0.653-3.801,0.981-6.324,0.981c-2.565,0-4.688-0.281-6.369-0.846
			c-1.681-0.565-3.044-1.456-4.088-2.679C30.611,104.427,30.088,102.896,30.088,101.062z M37.12,101.081
			c0,1.582,0.427,2.72,1.279,3.412c0.851,0.69,2.012,1.036,3.48,1.036c1.509,0,2.675-0.339,3.502-1.017
			c0.828-0.676,1.243-1.892,1.243-3.646c0-1.477-0.432-2.555-1.298-3.235c-0.86-0.682-2.031-1.021-3.509-1.021
			c-1.418,0-2.556,0.347-3.412,1.038C37.547,98.339,37.12,99.482,37.12,101.081z"/>
		<path fill="#FFFFFF" d="M57.177,93.183h6.189l8.091,8.859v-8.859h6.237v15.99h-6.237l-8.045-8.811v8.811h-6.235V93.183z"/>
		<path fill="#FFFFFF" d="M81.472,93.106H92.16c2.105,0,3.808,0.197,5.104,0.593c1.298,0.396,2.372,0.962,3.219,1.701
			c0.846,0.738,1.457,1.599,1.842,2.58c0.379,0.98,0.571,2.021,0.571,3.119c0,1.721-0.285,3.054-0.85,4.001
			c-0.569,0.947-1.353,1.744-2.358,2.383c-1.008,0.64-2.088,1.067-3.24,1.279c-1.577,0.293-3.008,0.438-4.287,0.438H81.472V93.106z
			 M88.669,96.761v8.785h1.763c1.5,0,2.57-0.114,3.204-0.344c0.637-0.23,1.134-0.633,1.493-1.208c0.358-0.573,0.54-1.504,0.54-2.791
			c0-1.704-0.401-2.87-1.206-3.5c-0.806-0.627-2.138-0.942-4-0.942H88.669z"/>
		<path fill="#FFFFFF" d="M119.663,93.105h6.645v9.417c0,0.934-0.198,1.814-0.596,2.645c-0.395,0.83-1.021,1.555-1.868,2.178
			c-0.848,0.621-1.74,1.057-2.673,1.309c-1.295,0.351-2.853,0.528-4.671,0.528c-1.046,0-2.194-0.055-3.435-0.161
			c-1.242-0.109-2.277-0.322-3.117-0.643c-0.831-0.319-1.595-0.773-2.288-1.362c-0.692-0.588-1.166-1.196-1.42-1.82
			c-0.412-1.006-0.617-1.896-0.617-2.673v-9.417h6.641v9.644c0,0.861,0.331,1.535,0.984,2.021c0.655,0.485,1.564,0.727,2.723,0.727
			c1.152,0,2.06-0.238,2.716-0.717c0.652-0.477,0.977-1.154,0.977-2.03V93.105z"/>
	</g>
</g>
</svg>