<?xml version="1.0" encoding="utf-8"?>
<!-- Generator: Adobe Illustrator 23.0.4, SVG Export Plug-In . SVG Version: 6.00 Build 0)  -->
<svg version="1.1" id="Capa_1" xmlns="http://www.w3.org/2000/svg" xmlns:xlink="http://www.w3.org/1999/xlink" x="0px" y="0px"
	 viewBox="0 0 200 200" style="enable-background:new 0 0 200 200;" xml:space="preserve">
<style type="text/css">
	.st0{fill:#EAEAEA;}
	.st1{fill:#D17B10;}
	.st2{fill:#282721;}
	.st3{fill:#FFFFFF;}
	.st4{fill:#339642;}
	.st5{fill:#F7E100;}
</style>
<path id="XMLID_97_" class="st0" d="M78.1,95.4c0-2-1.6-3.6-3.6-3.6c-2,0-3.6,1.6-3.6,3.6c0,2,1.6,3.6,3.6,3.6
	C76.6,99,78.1,97.4,78.1,95.4 M84.3,95.4c0,5.2-4.3,9.3-9.7,9.3c-5.4,0-9.7-4.1-9.7-9.3c0-5.2,4.3-9.4,9.7-9.4
	C80,86,84.3,90.2,84.3,95.4"/>
<path id="XMLID_94_" class="st0" d="M103.7,91.6c0-3.5-2.4-6.5-6-6.5h-4.9v13.2h4.9C101.3,98.3,103.7,95.1,103.7,91.6 M110.4,91.6
	c0,7.4-5.2,12.5-12.5,12.5H87.3c-0.5,0-0.9-0.4-0.9-0.9V80.1c0-0.5,0.4-0.9,0.9-0.9h10.6C105.2,79.3,110.4,84.2,110.4,91.6"/>
<path id="XMLID_91_" class="st0" d="M120.7,99c2,0,3.6-1.6,3.6-3.6c0-2-1.6-3.6-3.6-3.6c-2,0-3.6,1.6-3.6,3.6
	C117.2,97.4,118.7,99,120.7,99 M119.8,86c2.1,0,3.8,0.8,4.5,1.9v-0.5c0-0.5,0.4-0.8,0.8-0.8h4.4c0.5,0,0.8,0.4,0.8,0.8v16
	c0,0.5-0.4,0.8-0.8,0.8h-4.4c-0.5,0-0.8-0.4-0.8-0.8v-0.5c-0.7,1.1-2.5,1.9-4.6,1.9c-4.5,0-8.8-3.6-8.8-9.4S115.3,86,119.8,86"/>
<path id="XMLID_88_" class="st0" d="M141,99c2,0,3.6-1.6,3.6-3.6c0-2-1.6-3.6-3.6-3.6c-2,0-3.6,1.6-3.6,3.6
	C137.4,97.4,139,99,141,99 M139.9,86c2.2,0,3.8,0.8,4.6,1.8v-7.7c0-0.5,0.4-0.8,0.8-0.8h4.5c0.5,0,0.8,0.4,0.8,0.8v23.3
	c0,0.5-0.4,0.8-0.8,0.8h-4.4c-0.5,0-0.8-0.4-0.8-0.8v-0.5c-0.9,1.1-2.5,1.9-4.6,1.9c-4.5,0-8.8-3.6-8.8-9.4S135.5,86,139.9,86"/>
<path id="XMLID_85_" class="st0" d="M161.2,99c2,0,3.6-1.6,3.6-3.6c0-2-1.6-3.6-3.6-3.6c-2,0-3.6,1.6-3.6,3.6
	C157.6,97.4,159.2,99,161.2,99 M160.1,86c2.2,0,3.8,0.8,4.6,1.8v-7.7c0-0.5,0.4-0.8,0.8-0.8h4.5c0.5,0,0.8,0.4,0.8,0.8v23.3
	c0,0.5-0.4,0.8-0.8,0.8h-4.4c-0.5,0-0.8-0.4-0.8-0.8v-0.5c-0.9,1.1-2.5,1.9-4.6,1.9c-4.5,0-8.8-3.6-8.8-9.4S155.7,86,160.1,86"/>
<path id="XMLID_53_" class="st0" d="M185.7,106.7c-1.1,3.7-3.7,5.8-7.8,5.8c-2.2,0-4.3-0.7-5.7-2c-0.2-0.2-0.4-0.5-0.4-0.7
	c0-0.2,0.1-0.5,0.3-0.7l1.7-2.6c0.2-0.4,0.6-0.4,0.7-0.4c0.4,0,0.6,0.1,0.9,0.4c0.5,0.4,1.2,0.8,2.1,0.8c0.7,0,1.6-0.3,1.9-1.4
	l0.6-1.8h-2.7c-0.6,0-0.9-0.4-1.1-0.9l-4.5-15.4c-0.1-0.4-0.1-0.6-0.1-0.7c0-0.4,0.2-0.6,0.7-0.6h5.3c0.5,0,0.7,0.4,0.9,0.9l3,11
	h0.2l2.4-11c0.1-0.4,0.4-0.9,0.9-0.9h5.4c0.5,0,0.7,0.3,0.7,0.6c0,0.1,0,0.4-0.1,0.7L185.7,106.7z"/>
<path id="XMLID_52_" class="st0" d="M58.5,100.7c-2.1,3-5.7,4-8.8,4c-7.2,0-12.6-5.4-12.6-13c0-7.2,5.8-13,13.3-13
	c5.6,0,10.1,2.4,12.1,6.9c0.2,0.5,0.4,1.4-1.1,1.7L57.5,88c-0.9,0.2-1.4-0.4-1.6-0.7c-1.2-1.6-3.1-2.7-5.3-2.7c-3.9,0-6.8,3-6.8,7.1
	c0,4.5,3.2,7.1,6.6,7.1c2.3,0,4.2-0.9,5.5-2.5h-3.5c-0.5,0-0.9-0.4-0.9-0.9v-3.3c0-0.5,0.4-0.9,0.9-0.9h10.6c0.5,0,0.9,0.4,0.9,0.9
	v11.2c0,0.5-0.4,0.9-0.9,0.9h-3.7c-0.5,0-0.9-0.4-0.9-0.9V100.7z"/>
<path id="XMLID_51_" class="st1" d="M17.9,63.6c0-0.1,0-0.1,0-0.2c0-1.1,1-2.3,1.1-3.5l0,0v0c0-0.2-0.2-0.4-0.3-0.4
	c-0.2-0.1-0.3-0.1-0.5-0.1c-0.5,0-1.1,0.2-1.4,0.7c-0.5,1.1-1.3,2.2-1.3,3.4c0,0.4,0.1,0.7,0.3,1.1c0.4,1,1.1,1.9,1.5,2.9
	c0.1,0.2,0.1,0.4,0.1,0.5c0,0.3-0.1,0.6-0.4,0.9c-0.1,0.1-0.6,0.1-0.9,0.5l0,0l0,0l0,0.2c0,0.4,0.4,0.7,0.7,0.9
	c0.2,0.1,0.4,0.1,0.6,0.1c0.8,0,1.5-0.5,1.8-1c0.3-0.4,0.4-0.9,0.4-1.3C19.5,66.5,18.1,65.1,17.9,63.6"/>
<path id="XMLID_50_" class="st1" d="M23.9,65.6c-0.8-1.2-1-1.4-1.4-2.3c-0.1-0.2-0.3-0.6-0.3-0.9c0-0.3,0.1-0.6,0.5-1
	c0.2-0.2,0.3-0.5,0.3-0.9c0-0.4-0.1-0.8-0.5-1.1C22.3,59.1,22,59,21.7,59c-0.6,0-0.9,0.4-1.2,1c-0.3,0.5-0.5,1.2-0.7,1.8
	c-0.1,0.3-0.1,0.5-0.1,0.8c0,1.9,2.1,3.4,2.5,5.1c0.1,0.2,0.1,0.4,0.1,0.5c0,0.4-0.1,0.8-0.3,1.3c0,0.1-0.1,0.3-0.1,0.4
	c0,0.6,0.5,0.9,1,0.9h0c0.3,0,0.5-0.1,0.7-0.3c1-1,1.3-1.8,1.3-2.6C25,67,24.4,66.3,23.9,65.6"/>
<path id="XMLID_49_" class="st1" d="M7.3,65.4c-0.2-0.3-0.2-0.7-0.2-1.2c0-0.6,0.1-1.2,0.1-1.8c0-0.3,0-0.7-0.1-1
	c-0.1-0.2-0.3-0.3-0.5-0.3c-0.5,0-1.3,0.4-1.5,1.1c-0.1,0.8-0.3,1.7-0.3,2.5c0,0.7,0.2,1.4,0.8,2c0.9,0.9,1.9,1.6,2.4,2.3
	c0.2,0.3,0.3,0.6,0.4,0.8c0,0.2,0,0.4-0.1,0.6c-0.1,0.3-0.5,0.8-0.6,1.2l0,0l0,0c0,0.2,0.2,0.4,0.4,0.4l0,0c0.2,0,0.4-0.1,0.5-0.1
	l0,0h0h0h0.1c1.1,0,1.7-0.8,1.9-1.6c0-0.2,0.1-0.4,0.1-0.5C10.5,68,8,67,7.3,65.4"/>
<path id="XMLID_48_" class="st1" d="M13.4,65c-0.8-1.3-1.9-2.5-2-3.7l0,0c0.2-0.1,0.7-0.2,1-0.3c0.2-0.1,0.5-0.2,0.8-0.3
	c0.2-0.2,0.5-0.3,0.5-0.7c0-0.2-0.1-0.3-0.2-0.4c-0.4-0.2-0.9-0.4-1.3-0.4c-1.4,0-2.8,0.9-3.2,2.3c0,0.2-0.1,0.4-0.1,0.6
	c0,2,2.2,3.3,2.8,5.1l0,0c0.1,0.2,0.1,0.4,0.1,0.6c0,0.4-0.1,0.8-0.2,1.2c0,0.1,0,0.2,0,0.3c0,0.2,0.1,0.5,0.3,0.6
	c0.2,0.1,0.4,0.2,0.6,0.2c0.4,0,0.9-0.1,1.1-0.4c0.5-0.6,0.6-1.2,0.6-1.8C14.3,66.8,13.9,65.8,13.4,65"/>
<line id="XMLID_47_" class="st2" x1="28.6" y1="99.3" x2="28.5" y2="99.3"/>
<path id="XMLID_75_" class="st0" d="M9.1,87.5c0-0.5,0.2-1,0.4-1.3c0.2-0.2,0.4-0.5,0.7-0.8l0.3,1.1C9.9,86.8,9.5,87.1,9.1,87.5
	 M34.3,81.1c-0.9-0.5-2.1-0.8-3.5-0.8l0,0c-1.2-3.1-2.8-5.4-4.7-6.9c-2.4-1.8-5.4-2.8-8.9-2.8c-1.7,0-3.5,0.3-5.2,0.7
	c-0.1-0.3-0.2-0.7-0.4-1c-0.1-0.2-0.3-0.2-0.5-0.1c-0.2,0.1-0.3,0.4-0.2,0.7c0,0.2,0,0.4,0,0.7c-1,0.3-1.9,0.6-2.9,1.1l-0.5,0.2
	c-0.2,0.1-0.2,0.2-0.2,0.4L8,75.9c-0.3,0.2-0.5,0.5-0.8,0.7c-0.3,0.2-0.3,0.7-0.1,0.8c0.4,0.1,0.9,0.2,1.3,0.2L9,80.3l0,0.1
	c-0.1,0.2-0.2,0.4-0.2,0.5c-0.1,0.3,0.1,0.7,0.3,0.6c0.1,0,0.1-0.1,0.2-0.1l0.7,2.9c-0.6,0.4-1,0.9-1.3,1.3c-0.4,0.6-0.6,1.3-0.6,2
	c0,0.4,0.1,0.8,0.2,1.1l0,0C8.1,89.1,8,89.6,8,90.1c0,0.2,0,0.4,0,0.6c0.1,1,0.7,1.8,1.6,2.3c0.7,0.4,1.6,0.6,2.6,0.7l2.8,12
	c0,0.1,0.1,0.2,0.2,0.3l0.1,0l0.2,0l0.7-0.4c0.7-0.4,1.8-1,3.2-2c0.5-0.3,0.9-0.5,1.6-0.5c0.5,0,1.1,0.1,1.7,0.3
	c0.8,0.2,1.8,0.5,2.9,0.5c0.5,0,1-0.1,1.4-0.2c1.2-0.3,2.2-1,2.7-2c0.3-0.7,0.5-1.4,0.5-2.2c0-0.2,0-0.4,0-0.5
	c0-1.2-0.6-2.4-1.2-3.6l-0.2-0.4c-1-2-1.2-2.7-1.2-3l0-0.1c0.2-0.2,1.1-0.5,2.3-0.8c0.5-0.1,1.1-0.3,1.5-0.4
	c0.2-0.1,0.4-0.2,0.6-0.3c0.1-0.1,0.3-0.2,0.4-0.3c0.2-0.2,0.3-0.5,0.3-0.8c0-0.6-0.1-1.8-0.4-3.2c0.7-0.1,1.3-0.3,1.9-0.6
	c0.9-0.5,1.6-1.2,1.6-2.2C35.9,82.3,35.2,81.5,34.3,81.1"/>
<path id="XMLID_44_" class="st3" d="M10.5,80.2c0.2-0.3,0.5-0.6,0.7-0.9l0.1-0.1c0.2-0.3,0.5-0.7,0.8-0.7l0,0c0.8,0.1,1.3,0.5,2,0.9
	c0.2,0.1,0.4,0.2,0.5,0.4c0.1,0.1,0.2,0.2,0.4,0.3c0.3,0.3,0.7,0.5,1.1,0.5l0.2,0h0c0.1,0,0.2-0.1,0.3-0.3c0-0.1,0.1-0.2,0.1-0.2
	l0,0l0,0c0.1-0.2,0-0.3-0.1-0.4l0,0c-0.1-0.1-0.1-0.2-0.2-0.3c-0.2-0.4-0.3-0.7-0.6-1c-0.3-0.4-0.6-0.8-0.9-1.2
	c-0.2-0.2-0.3-0.5-0.5-0.7c0.4-0.3,0.8-0.4,1.3-0.6c0.2-0.1,0.4-0.1,0.6-0.2c0.2-0.1,0.3-0.4,0.2-0.6c0-0.2-0.1-0.3-0.2-0.3l0,0l0,0
	c-0.5,0-0.9-0.2-1.4-0.4c-0.3-0.1-0.5-0.1-0.8-0.1c-0.4,0-0.7,0-1-0.2c-0.2-0.1-0.2-0.3-0.3-0.6l0-0.2c0-0.1-0.1-0.2-0.1-0.4l0-0.2
	c1.6-0.4,3.2-0.6,4.7-0.6c3.1,0,5.9,0.9,8,2.5c1.5,1.2,2.9,3.1,4,5.8c-0.7,0.1-1.4,0.3-1.9,0.6c-0.6,0.3-1.1,0.8-1.4,1.3
	c-0.1,0-0.2,0-0.3,0c-0.3,0-0.5,0-0.7,0.1c-0.4-1.8-2.4-3.2-4.6-3.2c-2.4,0-4.4,1.5-4.7,3.5c-1.7,0.1-3.1,0.3-4.3,0.8L10.5,80.2z"/>
<path id="XMLID_43_" class="st3" d="M9,73.9c0.5-0.2,1-0.4,1.5-0.6c-0.1,0.2-0.1,0.4-0.2,0.6c0,0.1-0.1,0.2-0.2,0.2L10,74.2v0.2
	c-0.2,0.2-0.4,0.3-0.7,0.5L9,73.9z"/>
<path id="XMLID_42_" class="st3" d="M11.6,84.7c1-0.4,2.4-0.7,4.1-0.8c0.5,1.8,2.4,3.1,4.6,3.1c2.4,0,4.3-1.5,4.7-3.5h0
	c0.3-0.1,0.5-0.1,0.7-0.1l0,0c0.1,0.9,0.7,1.6,1.7,2.1c0.9,0.5,2.1,0.7,3.5,0.7l0.1,0l0,0c0.2,1.1,0.4,2.2,0.4,2.8
	c-0.3,0.1-1,0.3-1.5,0.5l0,0c-1.2,0.3-2.5,0.7-3.1,1.2c-1,0.9-0.1,2.8,0.9,4.7c0.5,0.9,0.9,1.7,1.1,2.5C26.5,97.6,25,97,23.8,96
	c-1.2-1-2.1-2.3-3.2-3.9c-0.1-0.2-0.4-0.3-0.6-0.3c-0.1,0-0.3,0-0.4,0.1c-0.2,0.1-0.3,0.3-0.3,0.5c0,0.2,0,0.4,0.1,0.5l0.1,0.1
	c1.1,1.6,2.1,3.1,3.4,4.2c1.4,1.2,3.2,1.9,5.6,2.2c0.2,0,0.3,0,0.4,0.1c0,0.9-0.3,2.3-2.1,2.7c-0.3,0.1-0.7,0.1-1,0.1
	c-0.8,0-1.7-0.2-2.5-0.4c-0.8-0.2-1.5-0.4-2.3-0.4c-0.9,0-1.6,0.2-2.4,0.8c-0.4,0.3-1.4,1-2.5,1.6L11.6,84.7z"/>
<path id="XMLID_41_" class="st3" d="M11.8,92.4c-0.6-0.1-1.2-0.2-1.6-0.5c-0.6-0.3-0.9-0.8-1-1.4c0-0.2,0-0.3,0-0.5
	c0-0.7,0.2-1.2,0.5-1.6c0.2-0.2,0.5-0.5,1-0.7L11.8,92.4z"/>
<path id="XMLID_38_" class="st4" d="M30.8,85c-1.2,0-2.2-0.2-3-0.6c-0.7-0.3-1-0.7-1-1.2c0-0.4,0.3-0.8,1-1.2
	c0.5-0.2,1.1-0.4,1.9-0.5c0.4,0,0.7-0.1,1.1-0.1h0c0.1,0,0.1,0,0.2,0l0.1,0c1,0,1.9,0.3,2.6,0.6c0.8,0.4,1,0.8,1,1.1
	c0,0.3-0.2,0.7-1,1.1c-0.4,0.2-1,0.4-1.6,0.5C31.7,85,31.2,85,30.8,85L30.8,85z"/>
<path id="XMLID_36_" class="st4" d="M20.2,85.8c-0.9,0-1.9-0.3-2.5-0.8c-0.6-0.5-1-1.2-1-1.9c0-0.7,0.3-1.4,1-1.9
	c0.7-0.5,1.6-0.8,2.5-0.8c0.9,0,1.8,0.3,2.5,0.8c0.6,0.5,1,1.2,1,1.9c0,0.7-0.3,1.4-1,1.9C22.1,85.5,21.2,85.8,20.2,85.8"/>
<path id="XMLID_35_" class="st5" d="M9.9,79.6c0.1-0.4,0.2-0.7,0.2-1c0-0.1,0-0.3,0.1-0.4c0-0.2,0.1-0.3,0.1-0.5
	c0-0.1,0.1-0.2,0.2-0.4c0-0.1,0.1-0.2,0.1-0.3c0.1-0.2,0.1-0.4,0-0.6l0,0l0,0c-0.1-0.1-0.2-0.1-0.3-0.1c-0.2,0-0.4,0.1-0.5,0.1
	l-0.1,0l-0.1,0c-0.2,0.1-0.4,0.1-0.6,0.1c-0.2,0-0.3,0-0.5-0.1c0.1-0.1,0.3-0.2,0.4-0.3L9,76.2c0.1-0.1,0.3-0.2,0.5-0.2
	c0.1-0.1,0.3-0.2,0.4-0.3l0.1-0.1c0.1,0,0.2-0.1,0.2-0.1l0.1-0.1c0.1-0.1,0.3-0.3,0.4-0.5c0.3-0.5,0.4-1,0.6-1.6
	c0-0.1,0-0.2,0.1-0.3c0.1-0.2,0.1-0.4,0.2-0.6c0.1,0.1,0.1,0.3,0.2,0.5c0.1,0.3,0.2,0.7,0.3,1c0.1,0.4,0.2,0.8,0.4,1.2
	c0,0,0,0.1,0.1,0.1l0.1,0l0,0l0.1,0l0,0.1l0.1-0.1c0.2-0.2,0.4-0.2,0.6-0.2c0.1,0,0.2,0,0.2,0c0.1,0,0.2,0,0.2,0l0.1,0l0.1,0
	c0.1,0,0.2,0,0.3,0.1c-0.1,0.1-0.2,0.1-0.3,0.2c-0.3,0.2-0.6,0.3-0.9,0.4l0,0l0,0c-0.1,0.1-0.2,0.3-0.3,0.5c0,0.1,0,0.3,0.1,0.4
	c0,0.1,0.1,0.2,0.2,0.3l0.1,0.1c0.6,0.6,1.1,1.3,1.6,2.1l0,0c-0.1,0-0.1-0.1-0.2-0.2l-0.1-0.1c-0.4-0.3-0.7-0.5-1.1-0.7
	c-0.4-0.2-0.8-0.5-1.2-0.8c-0.1-0.1-0.2-0.1-0.3-0.1c-0.3,0-0.5,0.3-0.8,0.6c-0.1,0.2-0.3,0.3-0.4,0.4c-0.3,0.3-0.5,0.6-0.8,0.9
	c-0.1,0.1-0.1,0.2-0.2,0.2l-0.1,0.1C10,79.5,10,79.6,9.9,79.6L9.9,79.6z"/>
<polygon id="XMLID_33_" class="st0" points="191.1,82.2 191.2,82.1 193.4,82.1 193.5,82.2 193.5,82.5 193.4,82.6 192.6,82.6 
	192.6,84.8 192.5,84.9 192.1,84.9 192,84.8 192,82.6 191.2,82.6 191.1,82.5 "/>
<path id="XMLID_32_" class="st0" d="M195.2,83.6l0.6-1.4l0.1-0.1h0.7l0.1,0.1v2.6l-0.1,0.1h-0.4l-0.1-0.1v-1.9l-0.6,1.4
	c0,0.1-0.1,0.1-0.1,0.1h-0.3c-0.1,0-0.1,0-0.1-0.1l-0.6-1.4v1.9l-0.1,0.1h-0.4l-0.1-0.1v-2.6l0.1-0.1h0.7l0.1,0.1L195.2,83.6z"/>
<g>
	<path class="st0" d="M45.4,111.5c0.8,0,1.4,0.1,1.9,0.3c0.5,0.2,1,0.5,1.3,0.9c0.3,0.4,0.6,0.8,0.7,1.2s0.2,0.9,0.2,1.4
		c0,0.5-0.1,1-0.2,1.4c-0.2,0.5-0.4,0.9-0.7,1.2c-0.3,0.4-0.8,0.7-1.3,0.9c-0.5,0.2-1.2,0.3-1.9,0.3h-2.8v4.4h-2.7v-12.1H45.4z
		 M44.7,117.2c0.3,0,0.6,0,0.9-0.1c0.3,0,0.5-0.1,0.7-0.3c0.2-0.1,0.4-0.3,0.5-0.6s0.2-0.5,0.2-0.9c0-0.4-0.1-0.7-0.2-0.9
		s-0.3-0.4-0.5-0.6c-0.2-0.1-0.5-0.2-0.7-0.3c-0.3,0-0.6-0.1-0.9-0.1h-2.1v3.6H44.7z"/>
	<path class="st0" d="M53.3,114.8v1.6h0c0.1-0.3,0.3-0.5,0.5-0.8s0.4-0.4,0.7-0.6c0.2-0.2,0.5-0.3,0.8-0.4s0.6-0.1,0.9-0.1
		c0.2,0,0.3,0,0.5,0.1v2.2c-0.1,0-0.2,0-0.4-0.1c-0.2,0-0.3,0-0.5,0c-0.4,0-0.8,0.1-1.1,0.2c-0.3,0.1-0.6,0.3-0.7,0.6
		s-0.3,0.6-0.4,0.9c-0.1,0.3-0.1,0.7-0.1,1.1v4H51v-8.8H53.3z"/>
	<path class="st0" d="M59.9,121.5c0.4,0.4,0.9,0.5,1.6,0.5c0.5,0,0.9-0.1,1.3-0.4c0.4-0.2,0.6-0.5,0.6-0.8h2.1
		c-0.3,1.1-0.9,1.8-1.6,2.3s-1.6,0.7-2.5,0.7c-0.7,0-1.3-0.1-1.9-0.3c-0.6-0.2-1-0.5-1.4-0.9c-0.4-0.4-0.7-0.9-0.9-1.5
		c-0.2-0.6-0.3-1.2-0.3-1.9c0-0.7,0.1-1.3,0.3-1.8s0.5-1.1,0.9-1.5c0.4-0.4,0.9-0.7,1.4-1c0.5-0.2,1.2-0.4,1.8-0.4
		c0.7,0,1.4,0.1,2,0.4s1,0.7,1.4,1.2c0.4,0.5,0.6,1,0.8,1.7s0.2,1.3,0.2,2h-6.3C59.3,120.6,59.5,121.1,59.9,121.5z M62.6,116.9
		c-0.3-0.3-0.7-0.5-1.3-0.5c-0.4,0-0.7,0.1-1,0.2c-0.3,0.1-0.5,0.3-0.6,0.5c-0.2,0.2-0.3,0.4-0.3,0.6c-0.1,0.2-0.1,0.4-0.1,0.6h3.9
		C63.1,117.7,62.9,117.2,62.6,116.9z"/>
	<path class="st0" d="M69.4,114.8v1.2h0c0.3-0.5,0.7-0.8,1.1-1.1c0.4-0.2,1-0.4,1.5-0.4c0.6,0,1.1,0.1,1.5,0.3
		c0.5,0.2,0.8,0.6,1,1.1c0.3-0.4,0.6-0.7,1.1-1c0.4-0.3,1-0.4,1.6-0.4c0.5,0,0.9,0.1,1.3,0.2c0.4,0.1,0.7,0.3,1,0.5
		c0.3,0.2,0.5,0.6,0.7,1c0.2,0.4,0.2,0.9,0.2,1.5v5.9h-2.4v-5c0-0.3,0-0.6,0-0.8c0-0.3-0.1-0.5-0.2-0.7c-0.1-0.2-0.3-0.3-0.5-0.5
		c-0.2-0.1-0.5-0.2-0.8-0.2c-0.3,0-0.6,0.1-0.8,0.2c-0.2,0.1-0.4,0.3-0.5,0.5c-0.1,0.2-0.2,0.4-0.2,0.7s-0.1,0.5-0.1,0.8v4.9h-2.4
		v-4.9c0-0.3,0-0.5,0-0.8s-0.1-0.5-0.1-0.7c-0.1-0.2-0.2-0.4-0.4-0.5c-0.2-0.1-0.5-0.2-0.9-0.2c-0.1,0-0.3,0-0.5,0.1
		c-0.2,0.1-0.4,0.1-0.5,0.3s-0.3,0.3-0.5,0.6c-0.1,0.3-0.2,0.6-0.2,1v5.1h-2.4v-8.8H69.4z"/>
	<path class="st0" d="M82.6,113.5v-2H85v2H82.6z M85,114.8v8.8h-2.4v-8.8H85z"/>
	<path class="st0" d="M92.8,123.6v-1.2h-0.1c-0.3,0.5-0.7,0.9-1.2,1.1s-1,0.3-1.5,0.3c-0.6,0-1.2-0.1-1.6-0.3
		c-0.4-0.2-0.7-0.4-1-0.7c-0.2-0.3-0.4-0.7-0.5-1.1c-0.1-0.4-0.1-0.9-0.1-1.5v-5.4h2.4v5c0,0.7,0.1,1.3,0.3,1.6
		c0.2,0.4,0.6,0.5,1.2,0.5c0.7,0,1.1-0.2,1.4-0.6c0.3-0.4,0.4-1,0.4-1.9v-4.6h2.4v8.8H92.8z"/>
	<path class="st0" d="M99.3,114.8v1.2h0c0.3-0.5,0.7-0.8,1.1-1.1c0.4-0.2,1-0.4,1.5-0.4c0.6,0,1.1,0.1,1.5,0.3
		c0.5,0.2,0.8,0.6,1,1.1c0.3-0.4,0.6-0.7,1.1-1c0.4-0.3,1-0.4,1.6-0.4c0.5,0,0.9,0.1,1.3,0.2s0.7,0.3,1,0.5s0.5,0.6,0.7,1
		s0.2,0.9,0.2,1.5v5.9H108v-5c0-0.3,0-0.6,0-0.8c0-0.3-0.1-0.5-0.2-0.7c-0.1-0.2-0.3-0.3-0.5-0.5c-0.2-0.1-0.5-0.2-0.8-0.2
		s-0.6,0.1-0.8,0.2c-0.2,0.1-0.4,0.3-0.5,0.5s-0.2,0.4-0.2,0.7c0,0.3-0.1,0.5-0.1,0.8v4.9h-2.4v-4.9c0-0.3,0-0.5,0-0.8
		s-0.1-0.5-0.1-0.7c-0.1-0.2-0.2-0.4-0.4-0.5c-0.2-0.1-0.5-0.2-0.9-0.2c-0.1,0-0.3,0-0.4,0.1c-0.2,0.1-0.4,0.1-0.5,0.3
		s-0.3,0.3-0.5,0.6c-0.1,0.3-0.2,0.6-0.2,1v5.1H97v-8.8H99.3z"/>
	<path class="st0" d="M126.4,111.5v2.2H120v2.6h5.9v2.1H120v3h6.5v2.2h-9.2v-12.1H126.4z"/>
	<path class="st0" d="M131,123.6l-3.9-12.1h2.7l2.7,8.5h0l2.7-8.5h2.8l-4,12.1H131z"/>
	<path class="st0" d="M145.8,120.6c0.1,0.3,0.3,0.5,0.6,0.7c0.2,0.2,0.5,0.3,0.9,0.4c0.3,0.1,0.7,0.1,1,0.1c0.2,0,0.5,0,0.8-0.1
		c0.3,0,0.5-0.1,0.8-0.2c0.2-0.1,0.4-0.3,0.6-0.5c0.2-0.2,0.2-0.5,0.2-0.8c0-0.3-0.1-0.6-0.3-0.8c-0.2-0.2-0.5-0.4-0.8-0.5
		c-0.3-0.1-0.7-0.3-1.2-0.4s-0.9-0.2-1.3-0.3c-0.5-0.1-0.9-0.3-1.3-0.4c-0.4-0.2-0.8-0.4-1.2-0.6s-0.6-0.6-0.8-1
		c-0.2-0.4-0.3-0.9-0.3-1.4c0-0.6,0.1-1.2,0.4-1.6c0.3-0.5,0.6-0.8,1-1.1s0.9-0.5,1.5-0.7s1.1-0.2,1.6-0.2c0.6,0,1.2,0.1,1.8,0.2
		c0.6,0.1,1.1,0.4,1.6,0.7s0.8,0.7,1.1,1.2c0.3,0.5,0.4,1.1,0.4,1.8h-2.6c0-0.4-0.1-0.7-0.2-0.9c-0.1-0.2-0.3-0.4-0.5-0.6
		c-0.2-0.1-0.5-0.2-0.7-0.3c-0.3-0.1-0.6-0.1-0.9-0.1c-0.2,0-0.4,0-0.6,0.1c-0.2,0-0.4,0.1-0.6,0.2s-0.3,0.3-0.4,0.4
		c-0.1,0.2-0.2,0.4-0.2,0.6c0,0.2,0,0.4,0.1,0.6c0.1,0.1,0.3,0.3,0.5,0.4c0.3,0.1,0.6,0.2,1.1,0.4c0.5,0.1,1.1,0.3,1.8,0.5
		c0.2,0,0.5,0.1,0.9,0.2s0.8,0.3,1.2,0.6c0.4,0.3,0.7,0.6,1,1s0.4,1,0.4,1.7c0,0.6-0.1,1.1-0.3,1.5c-0.2,0.5-0.5,0.9-1,1.2
		s-1,0.6-1.6,0.8c-0.6,0.2-1.4,0.3-2.2,0.3c-0.7,0-1.3-0.1-1.9-0.2s-1.2-0.4-1.7-0.8c-0.5-0.4-0.9-0.8-1.1-1.3
		c-0.3-0.5-0.4-1.2-0.4-1.9h2.6C145.6,120,145.7,120.3,145.8,120.6z"/>
	<path class="st0" d="M156.9,120.6c0.1,0.3,0.3,0.5,0.6,0.7c0.2,0.2,0.5,0.3,0.9,0.4c0.3,0.1,0.7,0.1,1,0.1c0.2,0,0.5,0,0.8-0.1
		c0.3,0,0.5-0.1,0.8-0.2c0.2-0.1,0.4-0.3,0.6-0.5c0.2-0.2,0.2-0.5,0.2-0.8c0-0.3-0.1-0.6-0.3-0.8c-0.2-0.2-0.5-0.4-0.8-0.5
		c-0.3-0.1-0.7-0.3-1.2-0.4s-0.9-0.2-1.3-0.3c-0.5-0.1-0.9-0.3-1.3-0.4c-0.4-0.2-0.8-0.4-1.2-0.6s-0.6-0.6-0.8-1
		c-0.2-0.4-0.3-0.9-0.3-1.4c0-0.6,0.1-1.2,0.4-1.6c0.3-0.5,0.6-0.8,1-1.1s0.9-0.5,1.5-0.7s1.1-0.2,1.6-0.2c0.6,0,1.2,0.1,1.8,0.2
		c0.6,0.1,1.1,0.4,1.6,0.7s0.8,0.7,1.1,1.2c0.3,0.5,0.4,1.1,0.4,1.8h-2.6c0-0.4-0.1-0.7-0.2-0.9c-0.1-0.2-0.3-0.4-0.5-0.6
		c-0.2-0.1-0.5-0.2-0.7-0.3c-0.3-0.1-0.6-0.1-0.9-0.1c-0.2,0-0.4,0-0.6,0.1c-0.2,0-0.4,0.1-0.6,0.2s-0.3,0.3-0.4,0.4
		c-0.1,0.2-0.2,0.4-0.2,0.6c0,0.2,0,0.4,0.1,0.6c0.1,0.1,0.3,0.3,0.5,0.4c0.3,0.1,0.6,0.2,1.1,0.4c0.5,0.1,1.1,0.3,1.8,0.5
		c0.2,0,0.5,0.1,0.9,0.2s0.8,0.3,1.2,0.6c0.4,0.3,0.7,0.6,1,1s0.4,1,0.4,1.7c0,0.6-0.1,1.1-0.3,1.5c-0.2,0.5-0.5,0.9-1,1.2
		s-1,0.6-1.6,0.8c-0.6,0.2-1.4,0.3-2.2,0.3c-0.7,0-1.3-0.1-1.9-0.2s-1.2-0.4-1.7-0.8c-0.5-0.4-0.9-0.8-1.1-1.3
		c-0.3-0.5-0.4-1.2-0.4-1.9h2.6C156.6,120,156.7,120.3,156.9,120.6z"/>
	<path class="st0" d="M168.5,111.5v9.9h5.9v2.2h-8.6v-12.1H168.5z"/>
</g>
</svg>
