<?xml version="1.0" encoding="utf-8"?>
<!-- Generator: Adobe Illustrator 15.0.0, SVG Export Plug-In . SVG Version: 6.00 Build 0)  -->
<!DOCTYPE svg PUBLIC "-//W3C//DTD SVG 1.1//EN" "http://www.w3.org/Graphics/SVG/1.1/DTD/svg11.dtd">
<svg version="1.1" id="Capa_1" xmlns="http://www.w3.org/2000/svg" xmlns:xlink="http://www.w3.org/1999/xlink" x="0px" y="0px"
	 width="200px" height="200px" viewBox="0 0 200 200" enable-background="new 0 0 200 200" xml:space="preserve">
<g>
	<g>
		<g>
			<defs>
				<rect id="SVGID_1_" x="21.195" y="53.023" width="134.712" height="84.605"/>
			</defs>
			<clipPath id="SVGID_2_">
				<use xlink:href="#SVGID_1_"  overflow="visible"/>
			</clipPath>
			<path clip-path="url(#SVGID_2_)" fill="#BBBCBE" d="M21.582,129.791L21.582,129.791c8.771-1.085,12.279-3.675,15.37-9.355
				c-2.443,0.049-4.547-1.712-4.935-4.123l-4.288-26.786c-1.121-7.011,4.294-13.361,11.394-13.361L42.045,112l10.397-27.952
				c1.785-4.783,6.353-8.026,11.459-8.026h5.125l-19.63,44.593c-3.56,8.084-9.123,13.721-17.131,16.491
				C27.151,138.876,21.776,135.198,21.582,129.791"/>
			<path clip-path="url(#SVGID_2_)" fill="#BBBCBE" d="M79.385,104.399c0.333,5.929,3.592,7.852,7.935,7.852
				c3.759,0,7.184-1.337,11.277-4.093c3.103,5.206,0.18,11.978-5.76,13.178c-2.222,0.447-4.642,0.661-7.187,0.604
				c-12.944-0.288-19.295-7.518-19.295-18.794c0-12.03,6.515-28.4,25.143-28.4c10.776,0,16.372,5.428,16.372,12.11
				C107.869,99.303,93.333,102.979,79.385,104.399 M94.754,87.608c0-2.004-1.002-4.092-4.511-4.092
				c-6.182,0-9.104,6.515-10.274,12.862C91.079,95.545,94.754,91.368,94.754,87.608"/>
			<path clip-path="url(#SVGID_2_)" fill="#BBBCBE" d="M110.794,120.38L115.177,89c1.03-7.397,7.357-12.871,14.829-12.871
				l-4.45,31.879c-0.992,7.123-7.084,12.371-14.275,12.371H110.794z M133.346,60.629c-0.584,4.092-4.009,7.183-8.519,7.183
				c-4.595,0-7.35-3.424-6.768-7.768c0.586-4.093,4.095-7.267,8.438-7.267C131.174,52.778,133.932,56.202,133.346,60.629"/>
			<path clip-path="url(#SVGID_2_)" fill="#BBBCBE" d="M155.877,55.487l-4.383,31.367c-1.032,7.399-7.359,12.866-14.831,12.866
				l5.306-38.01c0.504-3.603,3.584-6.223,7.22-6.223H155.877z M133.323,115.216c0.584-4.093,4.009-7.183,8.521-7.183
				c4.593,0,7.35,3.423,6.766,7.768c-0.586,4.093-4.093,7.266-8.438,7.266C135.495,123.066,132.739,119.644,133.323,115.216"/>
		</g>
	</g>
	<g>
		<defs>
			<path id="SVGID_3_" d="M134.027,113.457c-0.585,4.428,2.169,7.854,6.849,7.854c4.344,0,7.852-3.176,8.438-7.268
				c0.584-4.344-2.174-7.767-6.767-7.767C138.035,106.276,134.611,109.366,134.027,113.457 M149.893,53.845
				c-3.637,0-6.717,2.543-7.22,6.145l-5.305,38.002c7.471,0,13.797-5.403,14.828-12.803l4.383-31.343H149.893z"/>
		</defs>
		<clipPath id="SVGID_4_">
			<use xlink:href="#SVGID_3_"  overflow="visible"/>
		</clipPath>
		
			<linearGradient id="SVGID_5_" gradientUnits="userSpaceOnUse" x1="-880.3872" y1="1910.7344" x2="-879.5705" y2="1910.7344" gradientTransform="matrix(0 76.8119 76.8119 0 -146621.9375 67687)">
			<stop  offset="0" style="stop-color:#D3D543"/>
			<stop  offset="0.3495" style="stop-color:#A5C357"/>
			<stop  offset="0.4195" style="stop-color:#9CC168"/>
			<stop  offset="0.5854" style="stop-color:#89BC8B"/>
			<stop  offset="0.6744" style="stop-color:#82BA99"/>
			<stop  offset="0.8579" style="stop-color:#72BAB4"/>
			<stop  offset="1" style="stop-color:#69BAC5"/>
		</linearGradient>
		<rect x="133.729" y="53.845" clip-path="url(#SVGID_4_)" fill="url(#SVGID_5_)" width="22.999" height="67.356"/>
	</g>
	<path fill="#FFFFFF" d="M21.582,128.262L21.582,128.262c8.771-1.085,12.279-3.674,15.37-9.354
		c-2.443,0.048-4.547-1.711-4.935-4.123l-4.288-26.785c-1.121-7.011,4.294-13.362,11.394-13.362l2.922,35.835l10.397-28.009
		c1.785-4.782,6.353-8.083,11.459-8.083h5.125l-19.63,44.65c-3.56,8.084-9.123,13.749-17.131,16.519
		C27.151,137.318,21.776,133.67,21.582,128.262"/>
	<path fill="#FFFFFF" d="M79.385,102.87c0.333,5.93,3.592,7.852,7.935,7.852c3.759,0,7.184-1.337,11.277-4.093
		c3.103,5.206,0.18,11.979-5.76,13.178c-2.222,0.449-4.642,0.661-7.187,0.605c-12.944-0.287-19.295-7.519-19.295-18.795
		c0-12.028,6.515-28.399,25.143-28.399c10.776,0,16.372,5.429,16.372,12.111C107.869,97.774,93.333,101.45,79.385,102.87
		 M94.754,86.08c0-2.004-1.002-4.093-4.511-4.093c-6.182,0-9.104,6.516-10.274,12.863C91.079,94.016,94.754,89.84,94.754,86.08"/>
	<path fill="#FFFFFF" d="M110.794,118.736l4.383-31.321c1.03-7.399,7.357-12.843,14.829-12.843l-4.45,31.835
		c-0.992,7.124-7.084,12.329-14.275,12.329H110.794z M133.346,59.101c-0.584,4.092-4.009,7.183-8.519,7.183
		c-4.595,0-7.35-3.424-6.768-7.767c0.586-4.094,4.095-7.269,8.438-7.269C131.174,51.248,133.932,54.674,133.346,59.101"/>
	<path fill="#FFFFFF" d="M58.853,141.207c0,1.879-1.114,3.814-4.341,3.814h-1.306l-0.513,3.286h-1.38l1.424-9.857h2.597
		C57.533,138.45,58.853,139.39,58.853,141.207 M57.387,140.804c0-1.187-0.837-1.531-2.156-1.531h-1.277l-0.588,4.106h1.175
		C56.828,143.379,57.387,142.11,57.387,140.804"/>
	<path fill="#FFFFFF" d="M64.839,140.771l-0.396,1.306c-0.22-0.058-0.382-0.073-0.631-0.073c-0.997,0-1.672,0.776-2.214,2.345
		l-0.587,3.96h-1.335l1.084-7.393h1.146l-0.088,1.55c0.587-1.203,1.393-1.779,2.244-1.779
		C64.341,140.686,64.604,140.711,64.839,140.771"/>
	<path fill="#FFFFFF" d="M66.454,145.7c0.028,1.407,0.689,1.921,1.671,1.921c0.72,0,1.365-0.22,2.069-0.719l0.573,0.909
		c-0.836,0.602-1.746,0.938-2.772,0.938c-1.893,0-2.949-1.187-2.949-3.138c0-2.113,1.042-4.944,3.976-4.944
		c1.643,0,2.449,0.94,2.449,1.967C71.47,144.806,69.152,145.407,66.454,145.7 M70.063,142.678c0-0.367-0.22-0.938-1.057-0.938
		c-1.613,0-2.289,1.526-2.479,2.935C68.741,144.424,70.063,143.998,70.063,142.678 M67.349,138.497l3.095-1.672l0.44,1.13
		l-3.227,1.261L67.349,138.497z"/>
	<path fill="#FFFFFF" d="M78.351,141.622l-0.66,0.851c-0.527-0.499-1.217-0.733-1.833-0.733c-0.998,0-1.6,0.396-1.6,1.041
		c0,0.616,0.514,0.867,1.556,1.173c1.452,0.441,2.185,1.072,2.185,2.349c0,1.687-1.599,2.448-3.212,2.448
		c-1.35,0-2.259-0.527-2.86-1.113l0.821-0.837c0.513,0.544,1.275,0.864,2.097,0.864c1.38,0,1.746-0.791,1.746-1.259
		c0-0.778-0.411-1.013-1.627-1.424c-1.438-0.484-2.069-1.071-2.069-2.127c0-1.014,0.91-2.187,2.964-2.187
		C76.885,140.668,77.691,141.035,78.351,141.622"/>
	<path fill="#FFFFFF" d="M81.946,147.622c0.352,0,0.675-0.118,1.085-0.353l0.439,0.968c-0.557,0.353-1.129,0.515-1.746,0.515
		c-1.334,0-2.008-0.883-1.803-2.32l0.645-4.695h-1.335l0.147-0.821h1.394l0.484-1.824l1.056-0.102l-0.264,1.926h1.819l-0.294,0.821
		h-1.671l-0.645,4.725C81.139,147.239,81.315,147.622,81.946,147.622"/>
	<path fill="#FFFFFF" d="M91.395,141.327l-0.837,5.488c-0.015,0.117-0.029,0.22-0.029,0.309c0,0.425,0.191,0.585,0.499,0.702
		l-0.381,0.926c-0.777-0.104-1.262-0.456-1.364-1.291c-0.602,0.776-1.395,1.291-2.303,1.291c-1.615,0-2.464-1.188-2.464-2.963
		c0-2.113,1.113-5.121,4.123-5.121C89.561,140.668,90.367,140.83,91.395,141.327 M85.952,145.804c0,1.289,0.484,1.877,1.349,1.877
		c0.822,0,1.423-0.616,2.024-1.424l0.646-4.269c-0.44-0.191-0.762-0.249-1.305-0.249C86.7,141.739,85.952,144.072,85.952,145.804"/>
	<path fill="#FFFFFF" d="M103.499,142.941l-0.778,5.366h-1.336l0.764-5.264c0.162-1.158-0.264-1.313-0.808-1.313
		c-0.822,0-1.569,0.926-2.185,2.012l-0.66,4.564h-1.335l0.763-5.264c0.16-1.158-0.265-1.313-0.808-1.313
		c-0.821,0-1.57,0.941-2.186,2.041l-0.631,4.535h-1.334l1.085-7.393h1.145l-0.118,1.447c0.704-0.998,1.496-1.677,2.523-1.677
		c0.836,0,1.556,0.534,1.687,1.561c0.764-1.011,1.572-1.641,2.54-1.641C102.985,140.605,103.704,141.475,103.499,142.941"/>
	<path fill="#FFFFFF" d="M112.286,143.867c0,1.862-0.953,4.885-3.99,4.885c-1.92,0-2.963-1.233-2.963-3.199
		c0-1.905,0.981-4.885,4.006-4.885C111.259,140.668,112.286,141.901,112.286,143.867 M106.741,145.7c0,1.35,0.559,1.966,1.6,1.966
		c2.011,0,2.538-2.465,2.538-3.947c0-1.349-0.56-1.965-1.587-1.965C107.283,141.754,106.741,144.218,106.741,145.7"/>
	<path fill="#FFFFFF" d="M119.446,141.622l-0.66,0.851c-0.529-0.499-1.217-0.733-1.833-0.733c-0.998,0-1.6,0.396-1.6,1.041
		c0,0.616,0.514,0.867,1.555,1.173c1.451,0.441,2.187,1.072,2.187,2.349c0,1.687-1.6,2.448-3.214,2.448
		c-1.349,0-2.259-0.527-2.86-1.113l0.821-0.837c0.514,0.544,1.275,0.864,2.097,0.864c1.38,0,1.746-0.791,1.746-1.259
		c0-0.778-0.411-1.013-1.627-1.424c-1.438-0.484-2.069-1.071-2.069-2.127c0-1.014,0.911-2.187,2.965-2.187
		C117.979,140.668,118.786,141.035,119.446,141.622"/>
	<path fill="#FFFFFF" d="M125.783,145.7c0.03,1.407,0.689,1.922,1.673,1.922c0.719,0,1.365-0.221,2.069-0.719l0.571,0.908
		c-0.836,0.602-1.745,0.938-2.773,0.938c-1.89,0-2.947-1.187-2.947-3.138c0-2.113,1.041-4.944,3.976-4.944
		c1.643,0,2.45,0.94,2.45,1.967C130.802,144.806,128.483,145.407,125.783,145.7 M129.393,142.678c0-0.367-0.22-0.938-1.056-0.938
		c-1.614,0-2.287,1.526-2.481,2.935C128.072,144.424,129.393,143.998,129.393,142.678"/>
	<path fill="#FFFFFF" d="M138.724,142.941l-0.778,5.366h-1.333l0.762-5.264c0.162-1.158-0.265-1.313-0.953-1.313
		c-0.852,0-1.718,0.941-2.332,2.041l-0.631,4.535h-1.335l1.085-7.393h1.144l-0.117,1.476c0.721-1.012,1.659-1.771,2.686-1.771
		C138.225,140.62,138.929,141.475,138.724,142.941"/>
	<path fill="#FFFFFF" d="M146.251,147.637c0.175,0,0.352-0.045,0.527-0.118l0.278,0.983c-0.396,0.175-0.733,0.248-1.07,0.248
		c-1.027,0-1.569-0.63-1.395-1.905l1.292-9.109l1.349-0.162l-1.335,9.491C145.854,147.475,145.927,147.637,146.251,147.637"/>
	<path fill="#FFFFFF" d="M148.655,148.308l1.087-7.393h1.349l-1.084,7.393H148.655z M149.186,139.216l-0.309-0.719l3.095-1.672
		l0.439,1.13L149.186,139.216z"/>
	<path fill="#FFFFFF" d="M159.366,142.941l-0.778,5.366h-1.335l0.763-5.264c0.162-1.158-0.264-1.313-0.953-1.313
		c-0.851,0-1.717,0.941-2.333,2.041l-0.63,4.535h-1.335l1.086-7.393h1.144l-0.117,1.476c0.719-1.012,1.657-1.771,2.685-1.771
		C158.867,140.62,159.571,141.475,159.366,142.941"/>
	<path fill="#FFFFFF" d="M162.608,145.7c0.03,1.407,0.688,1.922,1.674,1.922c0.719,0,1.363-0.221,2.067-0.719l0.571,0.908
		c-0.836,0.602-1.745,0.938-2.772,0.938c-1.892,0-2.948-1.187-2.948-3.138c0-2.113,1.043-4.944,3.976-4.944
		c1.643,0,2.449,0.94,2.449,1.967C167.625,144.806,165.309,145.407,162.608,145.7 M166.217,142.678c0-0.367-0.22-0.938-1.056-0.938
		c-1.614,0-2.288,1.526-2.48,2.935C164.897,144.424,166.217,143.998,166.217,142.678"/>
	<path fill="#FFFFFF" d="M175.724,141.327l-0.837,5.488c-0.014,0.117-0.029,0.22-0.029,0.309c0,0.425,0.191,0.585,0.501,0.702
		l-0.382,0.926c-0.778-0.104-1.263-0.456-1.365-1.291c-0.603,0.776-1.395,1.291-2.303,1.291c-1.614,0-2.464-1.188-2.464-2.963
		c0-2.113,1.113-5.121,4.121-5.121C173.89,140.668,174.695,140.83,175.724,141.327 M170.282,145.804
		c0,1.289,0.482,1.877,1.349,1.877c0.821,0,1.422-0.616,2.023-1.424l0.646-4.269c-0.441-0.191-0.762-0.249-1.306-0.249
		C171.029,141.739,170.282,144.072,170.282,145.804"/>
	<path fill="#FFFFFF" d="M178.806,147.637c0,0.616-0.484,1.113-1.101,1.113c-0.542,0-0.909-0.41-0.909-0.924
		c0-0.616,0.484-1.115,1.086-1.115C178.438,146.711,178.806,147.124,178.806,147.637"/>
</g>
</svg>

