<svg xmlns="http://www.w3.org/2000/svg" xmlns:xlink="http://www.w3.org/1999/xlink" width="211.305" height="85.908" viewBox="0 0 211.305 85.908"><g fill="#002649"><path d="M46.122 14.904c3.803 4.08 5.704 9.865 5.704 17.359 0 5.785-.965 11.461-2.894 17.027-1.93 5.566-5.125 10.223-9.588 13.969-4.463 3.748-10.25 5.621-17.358 5.621-6.999 0-12.398-2.053-16.2-6.158-3.803-4.105-5.703-9.877-5.703-17.316 0-5.73.978-11.379 2.934-16.945 1.955-5.564 5.166-10.236 9.63-14.01s10.249-5.662 17.358-5.662c6.943 0 12.315 2.039 16.117 6.115zm-26.243 8.432c-2.287 3.088-3.872 6.725-4.753 10.91-.882 4.189-1.322 8.24-1.322 12.152 0 4.408.756 7.604 2.273 9.588 1.515 1.984 3.787 2.975 6.818 2.975 3.803 0 6.847-1.541 9.135-4.629 2.285-3.084 3.87-6.736 4.752-10.951.881-4.215 1.322-8.307 1.322-12.275 0-4.352-.758-7.508-2.272-9.463-1.517-1.957-3.79-2.936-6.819-2.936-3.803 0-6.848 1.543-9.134 4.629zM60.299 63.922c-3.224-3.307-4.836-7.881-4.836-13.721 0-4.52.798-8.914 2.397-13.186 1.598-4.27 4.229-7.811 7.894-10.621 3.664-2.811 8.39-4.215 14.176-4.215 5.73 0 10.222 1.652 13.474 4.959 3.25 3.307 4.877 7.799 4.877 13.473 0 4.52-.801 8.928-2.397 13.227-1.599 4.297-4.229 7.879-7.894 10.744-3.666 2.867-8.391 4.299-14.176 4.299-5.787 0-10.292-1.652-13.515-4.959zm22.44-10.705c1.543-4.051 2.343-8.443 2.398-13.184 0-2.865-.51-4.959-1.529-6.281-1.021-1.324-2.55-1.984-4.588-1.984-3.803 0-6.488 2.039-8.06 6.117-1.57 4.078-2.355 8.459-2.355 13.143 0 2.865.495 4.959 1.488 6.281.991 1.322 2.534 1.984 4.628 1.984 3.803 0 6.475-2.025 8.018-6.076zM120.019 23.584c1.139-.293 0 4.877 0 4.877 3.967-4.188 8.266-6.281 12.894-6.281 4.407 0 7.77 1.475 10.084 4.422 2.314 2.949 3.473 7.178 3.473 12.688 0 4.684-.787 9.285-2.356 13.805-1.57 4.52-4.092 8.279-7.563 11.281-3.474 3.004-7.936 4.506-13.392 4.506-2.975 0-5.593-.414-7.853-1.24 0 0-.667 9.049-4.979 13.678-4.31 4.629-10.312 4.59-10.312 4.59s5.84-43.432 7.273-52.236c1.227-7.154 9.774-9.809 12.731-10.09zm8.511 32.732c1.654-2.037 2.866-4.588 3.638-7.646s1.157-6.102 1.157-9.133c0-2.865-.469-4.877-1.405-6.033-.937-1.158-2.231-1.736-3.885-1.736-2.922 0-5.704 1.682-8.348 5.043l-2.976 21.49c1.817.717 3.663 1.074 5.537 1.074 2.535 0 4.63-1.02 6.282-3.059zM187.053 27.801l-5.703 7.025c-1.601-1.102-3.294-1.943-5.085-2.521s-3.541-.867-5.247-.867c-1.874 0-3.321.33-4.34.99-1.021.662-1.529 1.545-1.529 2.646 0 .771.232 1.404.702 1.9.467.496 1.267.979 2.396 1.447s2.935 1.088 5.414 1.859c3.802 1.213 6.654 2.893 8.555 5.041 1.901 2.15 2.853 4.906 2.853 8.268 0 2.811-.716 5.371-2.149 7.686s-3.637 4.162-6.612 5.539-6.612 2.066-10.91 2.066c-3.803 0-7.303-.662-10.497-1.984-3.197-1.322-5.787-3.059-7.771-5.207l6.53-6.779c3.471 3.088 7.41 4.631 11.819 4.631 2.204 0 3.886-.414 5.042-1.24 1.157-.826 1.737-1.873 1.737-3.141 0-.992-.237-1.777-.704-2.355-.469-.58-1.281-1.131-2.438-1.654s-3.005-1.225-5.538-2.107c-3.858-1.322-6.683-2.977-8.471-4.959-1.793-1.984-2.688-4.574-2.688-7.77 0-2.59.716-4.945 2.149-7.068 1.432-2.121 3.554-3.828 6.364-5.125 2.81-1.293 6.144-1.941 10.001-1.941 6.284-.001 11.656 1.872 16.12 5.62z"/></g><path fill="#C3C4C6" d="M210.584 1.805l-4.5 32.291c-1.06 7.596-7.557 13.252-15.228 13.252l5.448-39.092c.517-3.699 3.679-6.451 7.413-6.451h6.867zm-23.157 61.494c.601-4.203 4.117-7.375 8.749-7.375 4.717 0 7.545 3.516 6.946 7.975-.601 4.203-4.202 7.463-8.662 7.463-4.804-.001-7.634-3.518-7.033-8.063"/><defs><path id="a" d="M188.148 61.492c-.599 4.547 2.231 8.063 7.034 8.063 4.459 0 8.061-3.258 8.662-7.461.599-4.461-2.23-7.975-6.948-7.975-4.63 0-8.147 3.172-8.748 7.373m16.293-61.492c-3.735 0-6.898 2.752-7.415 6.453l-5.447 39.088c7.67 0 14.166-5.654 15.227-13.25l4.499-32.291h-6.864z"/></defs><clipPath id="b"><use xlink:href="#a" overflow="visible"/></clipPath><linearGradient id="c" gradientUnits="userSpaceOnUse" x1="-832.267" y1="1802.045" x2="-831.47" y2="1802.045" gradientTransform="matrix(0 81.282 81.282 0 -146273.891 67657.313)"><stop offset="0" stop-color="#D9DD2C"/><stop offset=".349" stop-color="#A0CA4D"/><stop offset=".475" stop-color="#83C673"/><stop offset=".604" stop-color="#6AC394"/><stop offset=".674" stop-color="#60C2A0"/><stop offset=".796" stop-color="#39C2B4"/><stop offset=".929" stop-color="#14C2C7"/><stop offset="1" stop-color="#06C2CE"/></linearGradient><path clip-path="url(#b)" fill="url(#c)" d="M187.55 0h23.755v69.555h-23.755z"/><g fill="#fff"><path d="M46.041 13.086c3.802 4.08 5.703 9.865 5.703 17.359 0 5.785-.965 11.463-2.894 17.027-1.929 5.566-5.125 10.223-9.588 13.969-4.463 3.748-10.249 5.621-17.357 5.621-7 0-12.399-2.053-16.201-6.158-3.803-4.105-5.704-9.877-5.704-17.316 0-5.73.979-11.379 2.935-16.945 1.955-5.564 5.166-10.234 9.63-14.01 4.464-3.773 10.25-5.662 17.358-5.662 6.943 0 12.316 2.039 16.118 6.115zm-26.244 8.432c-2.286 3.088-3.872 6.725-4.753 10.91-.882 4.189-1.322 8.24-1.322 12.152 0 4.408.757 7.604 2.273 9.588 1.516 1.984 3.787 2.975 6.819 2.975 3.802 0 6.846-1.541 9.133-4.629 2.286-3.084 3.872-6.736 4.753-10.951s1.322-8.307 1.322-12.275c0-4.352-.758-7.508-2.273-9.463s-3.789-2.936-6.818-2.936c-3.803 0-6.848 1.543-9.134 4.629zM60.216 62.104c-3.223-3.307-4.835-7.881-4.835-13.721 0-4.52.798-8.914 2.397-13.186 1.598-4.27 4.229-7.811 7.894-10.621 3.664-2.811 8.39-4.215 14.175-4.215 5.732 0 10.223 1.652 13.475 4.959 3.25 3.307 4.877 7.799 4.877 13.473 0 4.52-.801 8.928-2.397 13.227-1.599 4.297-4.229 7.881-7.895 10.744-3.665 2.867-8.39 4.299-14.175 4.299-5.788 0-10.292-1.653-13.516-4.959zm22.441-10.706c1.543-4.051 2.342-8.443 2.398-13.184 0-2.865-.51-4.959-1.529-6.281-1.021-1.322-2.55-1.984-4.588-1.984-3.803 0-6.488 2.039-8.059 6.117s-2.355 8.459-2.355 13.143c0 2.865.495 4.959 1.487 6.281s2.533 1.984 4.629 1.984c3.802.001 6.474-2.025 8.017-6.076zM119.937 21.766c1.14-.293 0 4.877 0 4.877 3.966-4.188 8.265-6.281 12.894-6.281 4.407 0 7.77 1.475 10.083 4.422 2.315 2.949 3.474 7.178 3.474 12.688 0 4.686-.787 9.287-2.355 13.805-1.571 4.52-4.093 8.279-7.563 11.281-3.474 3.006-7.936 4.506-13.392 4.506-2.976 0-5.593-.412-7.853-1.24 0 0-.667 9.049-4.979 13.678-4.311 4.629-10.312 4.59-10.312 4.59s5.84-43.432 7.273-52.236c1.226-7.155 9.773-9.807 12.73-10.09zm8.511 32.732c1.652-2.037 2.866-4.586 3.638-7.645s1.157-6.104 1.157-9.135c0-2.865-.468-4.877-1.404-6.033-.938-1.158-2.232-1.736-3.886-1.736-2.921 0-5.704 1.682-8.348 5.043l-2.976 21.49c1.816.717 3.662 1.074 5.537 1.074 2.535.001 4.63-1.019 6.282-3.058zM186.971 25.982l-5.704 7.025c-1.6-1.102-3.293-1.943-5.084-2.521s-3.541-.867-5.248-.867c-1.874 0-3.32.33-4.339.992-1.021.66-1.529 1.543-1.529 2.645 0 .771.232 1.404.702 1.9.467.496 1.268.979 2.397 1.447 1.128.469 2.934 1.088 5.413 1.859 3.802 1.213 6.654 2.893 8.555 5.043 1.901 2.148 2.853 4.904 2.853 8.266 0 2.811-.716 5.371-2.149 7.688-1.433 2.313-3.637 4.16-6.611 5.537-2.977 1.377-6.613 2.066-10.912 2.066-3.802 0-7.302-.662-10.496-1.984-3.197-1.322-5.787-3.059-7.771-5.207l6.53-6.777c3.471 3.086 7.41 4.629 11.819 4.629 2.203 0 3.886-.414 5.042-1.24 1.157-.826 1.736-1.873 1.736-3.141 0-.992-.236-1.777-.702-2.355-.47-.58-1.282-1.129-2.439-1.654-1.157-.523-3.005-1.225-5.538-2.107-3.858-1.322-6.682-2.975-8.471-4.959-1.793-1.984-2.688-4.574-2.688-7.771 0-2.588.715-4.943 2.148-7.066 1.432-2.121 3.555-3.828 6.365-5.125 2.81-1.293 6.144-1.941 10.002-1.941 6.282-.003 11.655 1.87 16.119 5.618z"/></g></svg>