<svg xmlns="http://www.w3.org/2000/svg" width="350" height="350" viewBox="0 0 350 350"><path fill="#fff" d="M204.591 173.522c7.81-7.421 12.705-17.702 12.854-28.984l-.053-19.729s-.095-31.845-.095-34.68c0-4.809-.61-9.171-2.664-13.674-2.051.724-4.284 1.141-6.643 1.141l-73.644.055c-1.837 4.112-2.633 8.56-2.633 13.004v51.993c0 11.756 3.307 21.955 12.646 30.791 17.12 16.228 43.941 15.567 60.232.083zm-20.945-9.119h-5.815c-1.256 0-2.082-1.085-2.082-2.164 0-1.082.826-2.166 2.082-2.166h5.815c1.25 0 2.082 1.084 2.082 2.166.001 1.057-.83 2.164-2.082 2.164zm19.781-38.01h-12.278l-.027-.555c0-2.663 2.779-4.8 6.172-4.809h-.032.029c3.426.009 6.166 2.174 6.166 4.809.001.165.001.361-.03.555zm-9.279-14.728l9.188.194c1.896.028 3.392 1.5 3.369 3.196-.029 1.722-1.656 3.027-3.521 3.002l-9.188-.196c-1.898-.028-3.398-1.499-3.371-3.195.003-1.723 1.687-3.029 3.523-3.001zm-11.815 22.147c-.367 4.392-4.838 6.698-8.667 6.532-3.399-.14-6.093-2.252-7.197-6.532h15.864zm-40.206-25.009c0-1.724 1.561-3.085 3.459-3.085h9.187c1.898 0 3.46 1.417 3.46 3.141 0 1.723-1.562 3.086-3.46 3.086h-9.187c-1.898-.001-3.459-1.42-3.459-3.142zm16.505 17.479h-12.279l-.032-.557c0-2.663 2.779-4.799 6.17-4.807l-.016-.002h.032l-.017.002c3.423.008 6.172 2.172 6.172 4.807.001.168.001.363-.03.557zm10.135 28.483h22.844l5.113-3.06c1.438-.858 3.094.753 3.094 2.026 0 1.197-6.062 4.341-7.504 5.229l-23.547.109c-3.52.003-3.52-4.304 0-4.304zM189.863 210.062v-21.504c-9.92 3.137-20.699 3.109-30.619 0v22.84c.122 16.758 30.619 18.59 30.619-1.336zM165.889 228.461l-.03.029-1.96.941 11.084 17.617 10.535-16.755-3.22-1.558c-5.262 1.81-11.236 1.725-16.409-.274zM159.487 224.738c-3.827-3.363-6.184-7.672-6.368-12.646-.214-5.752 0-11.639 0-17.424-2.204.974-4.104 2.413-5.542 4.167-1.868 2.279-2.972 5.113-2.972 8.169l.031 24.897v.507l2.112-1.027v.022l12.739-6.665zM119.437 112.221c0 1.778.949 3.417 2.481 4.613.948.75 2.113 1.361 3.429 1.778h.245v-27.956999999999997c0-3.167.336-6.112.98-8.863.366-1.612.854-3.14 1.438-4.642-3.46-.805-6.277-2.528-8.574-4.777l.001 39.848zM121.458 124.17c-2.235 0-4.256.835-5.696 2.167-1.469 1.334-2.388 3.167-2.388 5.168 0 7.948 5.083 8.532 12.218 8.532v-15.645000000000001c-.367-.055-.735-.138-1.073-.222h-3.061zM219.904 73.567c2.541 5.253 3.521 10.864 3.457 16.59l.097 28.537c1.438-.388 2.692-1.026 3.701-1.833 1.562-1.224 2.514-2.862 2.514-4.667v-43.184c0-2.307-1.502-4.308-3.555-5.585-.576 3.585-2.481 6.835-5.17 9.308-.332.306-.679.586-1.015.861l-.029-.027zM223.516 124.726l.063 15.867h4.131c5.517 0 8.086-3.89 8.086-8.53 0-2.029-.922-3.864-2.385-5.169-1.466-1.335-3.496-2.168-5.701-2.168h-4.194zM196.02 195.311v14.893c0 3.947-.336 7.006-2.847 10.533-1.164 1.611-2.483 3.078-4.036 4.354l14.018 7.345.121-25.401c0-3.058-1.104-5.886-2.967-8.166-1.17-1.421-2.607-2.614-4.289-3.558zM123.111 67.62c2.449 2.891 5.511 4.362 9.521 4.418l75.359-.056c3.338 0 6.399-1.249 8.606-3.279 2.204-2 3.582-4.808 3.582-7.835v-3.224c0-2.862-1.011-5.281-3.494-7.198-2.267-1.75-5.422-2.724-8.912-2.724-.028-.026-56.86.419-61.815.028l-.005.083c-8.85-.693-15.832-7.696-15.832-15.728v-5.418c-3.185 2.249-5.849 5.363-7.869 8.919-3.123 5.53-4.654 12.115-4.196 18.229.37 4.727 1.901 10.061 5.055 13.785zM174.86 257.17l-16.835-25.281-5.182 2.709 20.026 30.098h3.979l19.596-29.367-5.201-2.725-16.383 24.566z"/><path d="M197.275 121.029h.032z"/><path fill="#9E9E9E" d="M197.292 121.029c-3.392.009-6.172 2.146-6.172 4.809l.028.555h12.276c.031-.193.031-.39.031-.555.003-2.635-2.737-4.8-6.163-4.809zM183.646 160.073h-5.815c-1.256 0-2.082 1.084-2.082 2.166 0 1.079.826 2.164 2.082 2.164h5.815c1.252 0 2.082-1.107 2.082-2.164.001-1.082-.832-2.166-2.082-2.166zM173.666 140.344c3.829.166 8.299-2.141 8.667-6.532h-15.863c1.104 4.28 3.797 6.392 7.196 6.532zM199.816 153.731c0-1.273-1.655-2.885-3.094-2.026l-5.113 3.06h-22.844c-3.52 0-3.52 4.308 0 4.305l23.547-.109c1.443-.889 7.504-4.032 7.504-5.23z"/><path d="M158.018 231.879l.007.01.025-.01zM189.13 225.098l.007-.008-.039-.02z"/><path fill="#9E9E9E" d="M241.368 231.951c-8.056-9.869-19.14-17.59-31.998-22.202v-2.728c0-4.273-1.562-8.25-4.195-11.472-2.323-2.866-5.51-5.116-9.184-6.444v-2.893c4.836-2.277 9.213-5.279 13.012-8.861 8.479-8.058 13.897-19.059 14.481-31.206h4.19c8.914 0 14.212-6.361 14.212-14.085 0-3.559-1.591-6.78-4.164-9.115-1.47-1.333-3.272-2.39-5.267-3.028h-.058c2.082-2.112 3.338-4.78 3.338-7.725v-43.182c0-5.392-4.139-9.81-9.498-11.727-.094-4.585-2.233-8.336-5.668-10.976-3.062-2.364-8.905-4.446-12.948-4.032-20.49.028-40.908.502-61.394.058-5.42-.11-10.044-5.336-10.044-10.172v-14.505c-9.4 3.725-14.454 6.725-19.414 15.506-3.615 6.419-5.42 14.034-4.87 21.12.215 2.527.705 5.223 1.53 7.836l-.06.5c-.062.445-.093.86-.093 1.277v48.325c0 2.724 1.071 5.225 2.939 7.282-1.836.637-3.491 1.638-4.868 2.889-2.573 2.334-4.166 5.557-4.166 9.113 0 11.142 7.563 14.089 18.374 14.089.276 12.336 5.727 23.538 14.332 31.706 3.828 3.614 8.298 6.674 13.228 8.95v2.444c-4.195 1.25-7.84 3.695-10.441 6.867-2.633 3.224-4.196 7.196-4.196 11.477v2.167c-12.309 4.667-22.873 12.587-30.527 22.534-7.901 10.251-12.678 22.678-13.016 35.875l-.06 2.82h160.239l-.098-2.858c-.452-13.367-5.474-25.595-13.648-35.624zm-7.957-105.057c1.463 1.305 2.385 3.14 2.385 5.169 0 4.641-2.569 8.53-8.086 8.53h-4.162.031l-.063-15.867h4.194c2.205 0 4.235.833 5.701 2.168zm-12.463-54.162c2.688-2.473 4.594-5.723 5.17-9.308 2.053 1.277 3.555 3.278 3.555 5.585v43.185c0 1.805-.95 3.443-2.514 4.667-1.009.807-2.265 1.445-3.701 1.833l-.097-28.537c.063-5.726-.916-11.337-3.457-16.59l.029.026c.337-.275.683-.555 1.015-.861zm-98.694-37.125c2.021-3.556 4.686-6.67 7.869-8.919v5.418c0 8.031 6.982 15.034 15.832 15.728l.005-.083c4.955.391 61.787-.055 61.815-.028 3.49 0 6.646.974 8.912 2.724 2.483 1.917 3.494 4.336 3.494 7.198v3.224c0 3.027-1.377 5.835-3.582 7.835-2.207 2.03-5.271 3.279-8.606 3.279l-75.359.055c-4.011-.056-7.073-1.527-9.521-4.418-3.155-3.725-4.686-9.059-5.054-13.783-.459-6.114 1.072-12.699 4.195-18.23zm3.338 104.402v.028c-7.135 0-12.218-.584-12.218-8.532 0-2.001.919-3.834 2.388-5.168 1.44-1.332 3.461-2.167 5.696-2.167h3.061c.338.084.706.167 1.073.222v15.617zm.98-58.217c-.646 2.751-.98 5.696-.98 8.863v27.956999999999997h-.245c-1.315-.417-2.48-1.028-3.429-1.778-1.532-1.196-2.481-2.835-2.481-4.613v-39.848c2.296 2.249 5.114 3.973 8.574 4.777-.583 1.502-1.073 3.03-1.439 4.642zm17.79 91.647c-9.34-8.836-12.646-19.035-12.646-30.791v-51.993c0-4.444.796-8.892 2.633-13.004l73.646-.056c2.356 0 4.592-.417 6.644-1.141 2.053 4.503 2.663 8.865 2.663 13.674 0 2.835.095 34.68.095 34.68l.054 19.729c-.15 11.282-5.048 21.563-12.854 28.984-16.297 15.485-43.118 16.146-60.235-.082zm14.883 37.957v-22.84c9.92 3.11 20.698 3.139 30.62 0v21.504c-.002 19.928-30.499 18.096-30.62 1.336zm26.273 18.9l-10.535 16.755-11.084-17.619 1.96-.939.03-.029c5.174 1.999 11.147 2.084 16.409.278l3.22 1.554zm-40.879 2.114v-.506l-.031-24.898c0-3.056 1.104-5.89 2.972-8.169 1.438-1.754 3.337-3.192 5.542-4.167 0 5.785-.214 11.672 0 17.424.185 4.975 2.541 9.281 6.369 12.646l-12.737 6.667v-.023l-2.115 1.026zm32.213 32.285h-3.979l-20.026-30.1 5.182-2.707-.008-.012h.032l-.024.012 16.835 25.279 16.383-24.564 5.202 2.723-19.597 29.369zm26.3-32.261l-14.019-7.344-.006.008-.032-.027.038.021c1.554-1.275 2.873-2.742 4.037-4.354 2.511-3.527 2.847-6.586 2.847-10.533v-14.893c1.685.943 3.118 2.139 4.289 3.556 1.862 2.28 2.967 5.108 2.967 8.166l-.121 25.4zM193.999 117.861l9.188.196c1.864.025 3.492-1.28 3.521-3.002.021-1.696-1.476-3.168-3.369-3.196l-9.188-.194c-1.836-.028-3.521 1.278-3.521 3.001-.028 1.696 1.472 3.167 3.369 3.195zM158.232 108.858c0-1.724-1.562-3.141-3.46-3.141h-9.187c-1.898 0-3.459 1.361-3.459 3.085 0 1.723 1.561 3.142 3.459 3.142h9.187c1.9 0 3.46-1.363 3.46-3.086zM152.491 120.919c-3.391.008-6.169 2.144-6.169 4.807l.031.557h12.279c.03-.194.03-.39.03-.557.001-2.635-2.748-4.799-6.171-4.807z"/><path d="M152.476 120.917l.016.002.017-.002h-.033z"/><path fill="#fff" d="M315.663 329.846h-281.331v-90.45h261.554l19.777 19.776z"/><path fill="#9E9E9E" d="M318.163 332.344h-286.33v-95.447h265.088l21.242 21.24v74.207zm-281.331-4.998h276.331v-67.139l-18.312-18.312h-258.019v85.451z"/><path fill="#fff" d="M320.243 270.436l-.336.02-.117-.02h-17.022c-2.172 0-3.927 2.568-3.927 5.741 0 3.171 1.755 5.74 3.927 5.74h15.396v.112h-19.367c-3.174 0-5.741 2.57-5.741 5.742 0 3.17 2.567 5.739 5.741 5.739h19.367v.111h-18.17c-3.175 0-5.742 2.569-5.742 5.741s2.567 5.74 5.742 5.74h18.17v.113h-14.16c-2.215 0-4.01 2.571-4.01 5.742s1.795 5.742 4.01 5.742h17.383c.312 0 .611-.062.908-.161 8.933-1.308 15.955-11.038 15.981-22.972-.029-12.714-8.042-23.13-18.033-23.13z"/><path fill="#9E9E9E" d="M321.384 319.205h-17.383c-3.649 0-6.51-3.621-6.51-8.242 0-1.287.221-2.497.62-3.572-3.643-.854-6.362-4.127-6.362-8.022 0-1.972.694-3.781 1.853-5.2-1.856-1.516-3.047-3.816-3.047-6.396 0-3.91 2.735-7.191 6.396-8.033-.392-1.07-.606-2.276-.606-3.562 0-4.622 2.821-8.241 6.426-8.241l17.304.004.174-.004c11.291 0 20.5 11.498 20.53 25.633-.026 12.923-7.721 23.801-17.924 25.421-.507.142-.989.214-1.471.214zm-17.383-11.484c-.519 0-1.512 1.265-1.512 3.242 0 1.98.993 3.243 1.512 3.243l17.929-.136c7.87-1.151 13.821-9.969 13.846-20.504-.022-11.371-6.991-20.633-15.53-20.633l-.429.026-.209-.026h-16.84c-.437 0-1.429 1.226-1.429 3.241 0 2.017.992 3.241 1.429 3.241h17.896v4.998l-2.5.111h-19.367c-1.787 0-3.241 1.455-3.241 3.242s1.454 3.241 3.241 3.241h21.867v5l-2.5.112h-18.17c-1.787 0-3.242 1.454-3.242 3.24 0 1.787 1.455 3.242 3.242 3.242h20.67v5l-2.5.111h-14.161l-.002.009z"/><path fill="#fff" d="M29.756 270.378l.334.019.117-.019h17.022c2.17 0 3.929 2.569 3.929 5.74 0 3.173-1.759 5.741-3.929 5.741h-15.393v.115h19.366c3.172 0 5.741 2.568 5.741 5.739 0 3.172-2.569 5.741-5.741 5.741h-19.366v.111h18.17c3.172 0 5.742 2.568 5.742 5.74s-2.57 5.741-5.742 5.741h-18.17v.113h14.159c2.215 0 4.012 2.568 4.012 5.741 0 3.172-1.796 5.741-4.012 5.741h-17.381c-.313 0-.614-.062-.908-.159-8.936-1.31-15.959-11.039-15.983-22.974.027-12.713 8.041-23.13 18.033-23.13z"/><path fill="#9E9E9E" d="M45.996 319.148h-17.381c-.48 0-.963-.07-1.466-.216-10.208-1.618-17.899-12.498-17.926-25.411.03-14.146 9.24-25.645 20.532-25.645l.233.006.218-.006h17.022c3.604 0 6.429 3.618 6.429 8.239 0 1.282-.219 2.489-.61 3.563 3.659.84 6.396 4.123 6.396 8.032 0 2.577-1.188 4.882-3.048 6.396 1.157 1.42 1.853 3.229 1.853 5.199 0 3.897-2.721 7.173-6.362 8.024.399 1.075.621 2.285.621 3.571 0 4.627-2.861 8.248-6.511 8.248zm-16.221-46.267c-8.563 0-15.527 9.26-15.552 20.641.021 10.526 5.974 19.343 13.845 20.494l.415.099 17.513.037c.52 0 1.512-1.265 1.512-3.242 0-1.979-.993-3.241-1.512-3.241h-16.658v-5l2.5-.111h18.17c1.788 0 3.242-1.455 3.242-3.242s-1.454-3.242-3.242-3.242h-20.67v-4.998l2.5-.112h19.366c1.788 0 3.241-1.455 3.241-3.242 0-1.786-1.453-3.241-3.241-3.241h-21.866v-5l2.5-.112h15.394c.437 0 1.43-1.226 1.43-3.242s-.993-3.241-1.43-3.241l-17.448.004-.009-.009z"/><path fill="#fff" stroke="#9E9E9E" stroke-width="3" stroke-miterlimit="10" d="M11.722 293.457l.001.061-.001.062v-.123z"/><path fill="#9E9E9E" d="M295.886 239.396v19.776h19.777z"/></svg>