<?xml version="1.0" encoding="utf-8"?>
<!-- Generator: Adobe Illustrator 23.0.4, SVG Export Plug-In . SVG Version: 6.00 Build 0)  -->
<svg version="1.1" id="Capa_1" xmlns="http://www.w3.org/2000/svg" xmlns:xlink="http://www.w3.org/1999/xlink" x="0px" y="0px"
	 viewBox="0 0 80 80" style="enable-background:new 0 0 80 80;" xml:space="preserve">
<style type="text/css">
	.st0{fill:#00C1C6;}
</style>
<g>
	<path class="st0" d="M61.9,11.7C56,5.9,48.3,2.7,40,2.7c-8.2,0-16,3.2-21.9,9.1c-12,12.1-12,31.7,0,43.7L40,77.3l21.9-21.8
		C73.9,43.4,73.9,23.8,61.9,11.7z M60.2,53.8L40,74L19.8,53.8c-11.2-11.1-11.2-29.2,0-40.4C25.2,8,32.4,5.1,40,5.1
		c7.7,0,14.8,3,20.2,8.4C71.3,24.6,71.3,42.7,60.2,53.8z"/>
	<path class="st0" d="M40,20.5c-7.2,0-13.1,5.8-13.1,13.1c0,7.2,5.9,13.1,13.1,13.1c7.2,0,13.1-5.9,13.1-13.1
		C53.1,26.4,47.2,20.5,40,20.5z M40,44.3c-5.9,0-10.7-4.8-10.7-10.7c0-5.9,4.8-10.7,10.7-10.7s10.7,4.8,10.7,10.7
		C50.7,39.5,45.9,44.3,40,44.3z"/>
</g>
</svg>
